<svg width="19" height="15" viewBox="0 0 19 15" fill="none" xmlns="http://www.w3.org/2000/svg">
<path d="M6.83389 14.746C4.63341 14.746 2.78784 12.8939 2.78784 10.6855V3.41937H4.56242V10.6855C4.56242 11.9678 5.55619 12.9651 6.83389 12.9651C8.11159 12.9651 9.10535 11.9678 9.10535 10.6855V4.0605C9.10535 1.85216 10.9509 0 13.1514 0C15.3519 0 17.1974 1.85216 17.1974 4.0605V11.3979H15.4229V4.0605C15.4229 2.77823 14.4291 1.78092 13.1514 1.78092C11.8737 1.78092 10.8799 2.77823 10.8799 4.0605V10.6855C10.8799 12.9651 9.03437 14.746 6.83389 14.746Z" fill="#0B5079"/>
<path fill-rule="evenodd" clip-rule="evenodd" d="M1.15504 2.56451L3.21355 0.498646C3.4265 0.284936 3.78142 0.284936 4.06535 0.498646L6.12387 2.56451C6.47878 2.9207 6.26583 3.56183 5.76895 3.56183H1.58094C1.08406 3.56183 0.800124 2.9207 1.15504 2.56451Z" fill="#0B5079"/>
<path fill-rule="evenodd" clip-rule="evenodd" d="M18.759 12.2527L16.7005 14.3186C16.4876 14.5323 16.1327 14.5323 15.8487 14.3186L13.7902 12.2527C13.4353 11.8965 13.6482 11.2554 14.2161 11.2554H18.3331C18.901 11.2554 19.114 11.8253 18.759 12.2527Z" fill="#0B5079"/>
</svg>
