<svg width="19" height="18" viewBox="0 0 19 18" fill="none" xmlns="http://www.w3.org/2000/svg">
<path d="M16.7235 8.33498H11.2456C10.8922 8.33498 10.6271 8.06897 10.6271 7.71429V2.21675C10.6271 1.86207 10.8922 1.59606 11.2456 1.59606C11.4223 1.59606 11.599 1.68473 11.6873 1.7734L17.1653 7.27094C17.4304 7.53695 17.4304 7.89163 17.1653 8.15764C17.077 8.24631 16.9003 8.33498 16.7235 8.33498ZM0.99646 16.0493V1.95074C0.99646 0.8867 1.88 0 2.94026 0H8.06481C8.41823 0 8.68329 0.26601 8.68329 0.62069V8.33498C8.68329 9.39902 9.56684 10.2857 10.6271 10.2857H18.3139C18.6673 10.2857 18.9324 10.5517 18.9324 10.9064V16.0493C18.9324 17.1133 18.0489 18 16.9886 18H2.94026C1.88 18 0.99646 17.1133 0.99646 16.0493Z" fill="#0B5079"/>
</svg>
