<svg width="19" height="19" viewBox="0 0 19 19" fill="none" xmlns="http://www.w3.org/2000/svg">
<path d="M4.20141 9.46033C1.9 9.46033 0 11.3967 0 13.8033C0 16.2098 1.9 18.1462 4.20141 18.1462C6.50282 18.1462 8.40282 16.1822 8.40282 13.8033C8.40282 11.4243 6.52958 9.46033 4.20141 9.46033ZM4.20141 16.7908C2.62253 16.7908 1.33803 15.463 1.33803 13.8033C1.33803 12.1435 2.62253 10.8434 4.20141 10.8434C5.78028 10.8434 7.09155 12.1712 7.09155 13.8033C7.09155 15.4353 5.80704 16.7908 4.20141 16.7908Z" fill="#0B5079"/>
<path d="M16.0563 12.033C14.4239 12.033 13.0859 13.4161 13.0859 15.1034C13.0859 16.7908 14.4239 18.1739 16.0563 18.1739C17.6887 18.1739 19 16.7908 19 15.1034C19 13.4161 17.6887 12.033 16.0563 12.033ZM16.0563 16.7908C15.1464 16.7908 14.4239 16.0439 14.4239 15.1034C14.4239 14.1629 15.1464 13.4161 16.0563 13.4161C16.9662 13.4161 17.6887 14.1629 17.6887 15.1034C17.6887 16.0439 16.9394 16.7908 16.0563 16.7908Z" fill="#0B5079"/>
<path d="M16.0563 11.3691C17.0465 11.3691 17.9563 11.784 18.5986 12.4755L18.9732 8.57521C19.0268 8.02197 18.6254 7.49639 18.0901 7.44107L12.3634 6.80485V3.928H11.0254V6.63887L9.82113 6.50056L9.15211 1.99166C8.99155 0.829859 8.05493 0 6.90422 0H1.65915V7.74535C1.23099 7.93899 0.856337 8.16028 0.481689 8.4369L1.25775 9.54338C2.11408 8.90716 3.15775 8.54755 4.22817 8.54755C6.90422 8.54755 9.09859 10.7052 9.25915 13.4437H9.90141H10.6239H12.8183C13.3535 12.2266 14.6648 11.3691 16.0563 11.3691ZM6.90422 1.3831C7.35915 1.3831 7.76056 1.71504 7.81408 2.21296L8.42958 6.36225L2.97042 5.75369V1.3831H6.90422Z" fill="#0B5079"/>
<path d="M16.0563 15.795C16.4258 15.795 16.7254 15.4853 16.7254 15.1034C16.7254 14.7215 16.4258 14.4119 16.0563 14.4119C15.6869 14.4119 15.3873 14.7215 15.3873 15.1034C15.3873 15.4853 15.6869 15.795 16.0563 15.795Z" fill="#0B5079"/>
<path d="M4.20142 14.4949C4.57091 14.4949 4.87044 14.1853 4.87044 13.8034C4.87044 13.4214 4.57091 13.1118 4.20142 13.1118C3.83194 13.1118 3.53241 13.4214 3.53241 13.8034C3.53241 14.1853 3.83194 14.4949 4.20142 14.4949Z" fill="#0B5079"/>
</svg>
