<svg width="19" height="18" viewBox="0 0 19 18" fill="none" xmlns="http://www.w3.org/2000/svg">
<path fill-rule="evenodd" clip-rule="evenodd" d="M7.0973 17.3803C7.0973 17.1023 7.08262 16.1842 7.08262 15.2067C3.93653 15.7467 3.12187 14.4913 2.86989 13.8351C2.728 13.5002 2.11884 12.4635 1.58552 12.1878C1.14761 11.9691 0.521329 11.4291 1.57084 11.4155C2.55675 11.4018 3.26132 12.2607 3.49617 12.6116C4.62397 14.3751 6.42453 13.8807 7.14378 13.5731C7.25387 12.8144 7.58169 12.304 7.94131 12.0124C5.15484 11.723 2.24361 10.7183 2.24361 6.25488C2.24361 4.98581 2.728 3.93546 3.52798 3.11979C3.40321 2.82816 2.9653 1.632 3.65274 0.0280034C3.65274 0.0280034 4.70226 -0.277303 7.0973 1.22416C8.10033 0.962148 9.16452 0.830001 10.2287 0.830001C11.2929 0.830001 12.3571 0.962148 13.3601 1.22416C15.7552 -0.290973 16.8047 0.0280034 16.8047 0.0280034C17.4946 1.632 17.0542 2.82816 16.9295 3.11979C17.727 3.93546 18.2138 4.97214 18.2138 6.25488C18.2138 10.7319 15.2855 11.723 12.499 12.0147C12.954 12.3792 13.3454 13.0787 13.3454 14.1723C13.3454 15.733 13.3308 16.9861 13.3308 17.3803C13.3283 18.2393 7.0973 18.1732 7.0973 17.3803Z" fill="#0B5079"/>
</svg>
