<svg width="19" height="20" viewBox="0 0 19 20" fill="none" xmlns="http://www.w3.org/2000/svg">
<path fill-rule="evenodd" clip-rule="evenodd" d="M0.103149 10.0445L8.92595 1.19015C9.22334 0.891694 9.71901 0.891694 9.91727 1.19015L18.8392 10.0445C19.0375 10.2434 18.9383 10.5419 18.6409 10.5419H0.301414C0.00401669 10.5419 -0.0951159 10.2434 0.103149 10.0445Z" fill="#0B5079"/>
<path fill-rule="evenodd" clip-rule="evenodd" d="M1.88782 18.7004V10.443C1.88782 10.045 2.18521 9.74658 2.58174 9.74658H16.6586C16.8568 9.74658 16.956 9.84607 16.956 10.045V18.7999C16.956 19.1978 16.6586 19.4963 16.262 19.4963H12.6933C12.2967 19.4963 11.9993 19.1978 11.9993 18.7999V15.3178C11.9993 13.925 10.9089 12.8307 9.52102 12.8307C8.13317 12.8307 7.04271 13.925 7.04271 15.3178V18.7999C7.04271 19.1978 6.74531 19.4963 6.34878 19.4963H2.58174C2.18521 19.4963 1.88782 19.0983 1.88782 18.7004Z" fill="#0B5079"/>
</svg>
