<svg width="136" height="23" viewBox="0 0 136 23" fill="none" xmlns="http://www.w3.org/2000/svg">
<path d="M2.19423 18.0889C1.15858 18.0889 0.663269 17.5474 0.663269 16.5096V2.74685C0.663269 1.70901 1.15858 1.21265 2.19423 1.21265C3.22988 1.21265 3.7252 1.70901 3.7252 2.74685V15.4717H10.5695C11.4701 15.4717 11.9204 15.923 11.9204 16.7803C11.9204 17.6377 11.4701 18.0889 10.5695 18.0889H2.19423Z" fill="white"/>
<path d="M14.9824 4.01035C14.442 4.01035 13.9917 3.87497 13.6765 3.60423C13.3613 3.33349 13.2263 2.92738 13.2263 2.43102C13.2263 1.93465 13.3613 1.52854 13.6765 1.2578C13.9917 0.987056 14.397 0.851685 14.9824 0.851685C16.1531 0.851685 16.7385 1.39317 16.7385 2.43102C16.7385 3.46886 16.1531 4.01035 14.9824 4.01035ZM14.9824 18.2243C14.4871 18.2243 14.1268 18.0889 13.9017 17.7731C13.6315 17.5023 13.5415 17.0962 13.5415 16.5999V7.89099C13.5415 6.80802 14.0368 6.26653 15.0274 6.26653C16.018 6.26653 16.5133 6.80802 16.5133 7.89099V16.645C16.5133 17.1413 16.3782 17.5475 16.1531 17.8182C15.8379 18.0889 15.4777 18.2243 14.9824 18.2243Z" fill="white"/>
<path d="M29.0311 22.5562C28.0405 22.5562 27.5452 22.0598 27.5452 21.0671V16.3291C27.23 16.9157 26.6896 17.412 26.0592 17.773C25.3838 18.134 24.6633 18.3145 23.8078 18.3145C22.7722 18.3145 21.9166 18.0889 21.1511 17.5925C20.3857 17.0962 19.8003 16.3742 19.35 15.4717C18.8997 14.5693 18.7196 13.4863 18.7196 12.2228C18.7196 10.9594 18.9447 9.87639 19.35 8.97391C19.8003 8.07144 20.3857 7.39458 21.1511 6.89822C21.9166 6.40186 22.8172 6.17624 23.8078 6.17624C24.6633 6.17624 25.3838 6.35673 26.0592 6.71772C26.7347 7.07871 27.23 7.57507 27.5452 8.20681V7.71044C27.5452 6.71772 28.0405 6.22136 29.0311 6.22136C30.0217 6.22136 30.517 6.71772 30.517 7.71044V21.0671C30.517 22.0598 30.0217 22.5562 29.0311 22.5562ZM24.6183 16.0583C25.5189 16.0583 26.2393 15.7425 26.7797 15.1107C27.32 14.479 27.5902 13.5314 27.5902 12.2679C27.5902 11.0045 27.32 10.0569 26.7797 9.42515C26.2393 8.79342 25.5189 8.47755 24.6183 8.47755C23.7178 8.47755 22.9973 8.79342 22.457 9.42515C21.9166 10.0569 21.6464 11.0045 21.6464 12.2679C21.6464 13.5314 21.9166 14.479 22.457 15.1107C23.0423 15.7425 23.7178 16.0583 24.6183 16.0583Z" fill="white"/>
<path d="M37.5865 18.3145C34.7497 18.3145 33.3088 16.6901 33.3088 13.4863V7.71046C33.3088 6.71774 33.8042 6.22137 34.7948 6.22137C35.7854 6.22137 36.2807 6.71774 36.2807 7.71046V13.5314C36.2807 14.3436 36.4608 14.9754 36.776 15.3815C37.0912 15.7876 37.6316 15.9681 38.352 15.9681C39.1625 15.9681 39.7929 15.6974 40.2882 15.1559C40.7835 14.6144 41.0537 13.8924 41.0537 12.9899V7.71046C41.0537 6.71774 41.549 6.22137 42.5396 6.22137C43.5303 6.22137 44.0256 6.71774 44.0256 7.71046V16.7352C44.0256 17.773 43.5303 18.2694 42.5847 18.2694C41.5941 18.2694 41.1438 17.773 41.1438 16.7352V16.3291C40.3783 17.6377 39.1625 18.3145 37.5865 18.3145Z" fill="white"/>
<path d="M48.3933 4.01035C47.853 4.01035 47.4027 3.87497 47.0875 3.60423C46.7723 3.33349 46.6372 2.92738 46.6372 2.43102C46.6372 1.93465 46.7723 1.52854 47.0875 1.2578C47.4027 0.987056 47.8079 0.851685 48.3933 0.851685C49.564 0.851685 50.1494 1.39317 50.1494 2.43102C50.1494 3.46886 49.564 4.01035 48.3933 4.01035ZM48.3933 18.2243C47.898 18.2243 47.5378 18.0889 47.3126 17.7731C47.0425 17.5023 46.9524 17.0962 46.9524 16.5999V7.89099C46.9524 6.80802 47.4477 6.26653 48.4383 6.26653C49.429 6.26653 49.9243 6.80802 49.9243 7.89099V16.645C49.9243 17.1413 49.7892 17.5475 49.564 17.8182C49.2489 18.0889 48.8886 18.2243 48.3933 18.2243Z" fill="white"/>
<path d="M57.2189 18.3145C56.1833 18.3145 55.3277 18.0889 54.5623 17.5925C53.7968 17.0962 53.2114 16.3742 52.7611 15.4717C52.3108 14.5692 52.1307 13.4863 52.1307 12.2228C52.1307 10.9593 52.3559 9.87637 52.7611 8.97389C53.2114 8.07142 53.7968 7.39456 54.5623 6.8982C55.3277 6.40184 56.2283 6.17622 57.2189 6.17622C58.0294 6.17622 58.7949 6.35672 59.4704 6.71771C60.1458 7.0787 60.6411 7.57506 60.9563 8.16166V2.56632C60.9563 1.5736 61.4516 1.07724 62.4422 1.07724C63.4328 1.07724 63.9282 1.5736 63.9282 2.56632V16.7352C63.9282 17.773 63.4328 18.2694 62.4422 18.2694C61.4516 18.2694 60.9563 17.773 60.9563 16.7352V16.2388C60.6411 16.8705 60.1008 17.3669 59.4704 17.773C58.7949 18.134 58.0745 18.3145 57.2189 18.3145ZM58.0294 16.0583C58.93 16.0583 59.6505 15.7425 60.1908 15.1107C60.7311 14.479 61.0013 13.5314 61.0013 12.2679C61.0013 11.0045 60.7311 10.0569 60.1908 9.42513C59.6505 8.7934 58.93 8.47753 58.0294 8.47753C57.1289 8.47753 56.4084 8.7934 55.8681 9.42513C55.3277 10.0569 55.0576 11.0045 55.0576 12.2679C55.0576 13.5314 55.3277 14.479 55.8681 15.1107C56.4535 15.7425 57.1739 16.0583 58.0294 16.0583Z" fill="white"/>
<path d="M71.808 18.0889C70.7274 18.0889 70.187 17.5474 70.187 16.4645V2.88224C70.187 1.79927 70.7274 1.25778 71.808 1.25778H76.446C79.2377 1.25778 81.4441 1.97976 82.9751 3.42372C84.506 4.86768 85.2715 6.94337 85.2715 9.6508C85.2715 12.3582 84.506 14.4339 82.9751 15.8779C81.4441 17.3218 79.2827 18.0889 76.446 18.0889H71.808ZM73.2489 15.562H76.2658C80.1383 15.562 82.0745 13.5766 82.0745 9.6508C82.0745 5.72503 80.1383 3.78471 76.2658 3.78471H73.2489V15.562Z" fill="white"/>
<path d="M89.3241 18.2694C88.2885 18.2694 87.7932 17.773 87.7932 16.7352V7.71044C87.7932 6.71772 88.2885 6.22136 89.2341 6.22136C90.1797 6.22136 90.675 6.71772 90.675 7.71044V8.43243C91.2603 7.07871 92.4761 6.31161 94.3223 6.13111C94.9977 6.04087 95.4029 6.44698 95.448 7.30433C95.538 8.16168 95.1328 8.61292 94.2322 8.70317L93.6919 8.74829C91.7556 8.92879 90.765 9.92151 90.765 11.7716V16.6901C90.8101 17.773 90.3147 18.2694 89.3241 18.2694Z" fill="white"/>
<path d="M98.3748 4.01035C97.8344 4.01035 97.3841 3.87497 97.0689 3.60423C96.7537 3.33349 96.6187 2.92738 96.6187 2.43102C96.6187 1.93465 96.7537 1.52854 97.0689 1.2578C97.3841 0.987056 97.7894 0.851685 98.3748 0.851685C99.5455 0.851685 100.131 1.39317 100.131 2.43102C100.131 3.46886 99.5455 4.01035 98.3748 4.01035ZM98.3748 18.2243C97.8794 18.2243 97.5192 18.0889 97.2941 17.7731C97.0239 17.5023 96.9338 17.0962 96.9338 16.5999V7.89099C96.9338 6.80802 97.4292 6.26653 98.4198 6.26653C99.4104 6.26653 99.9057 6.80802 99.9057 7.89099V16.645C99.9057 17.1413 99.7706 17.5475 99.5455 17.8182C99.2303 18.0889 98.8701 18.2243 98.3748 18.2243Z" fill="white"/>
<path d="M107.425 18.2694C106.615 18.2694 106.03 17.8633 105.669 17.0059L101.887 8.20682C101.662 7.66533 101.662 7.2141 101.887 6.80798C102.112 6.40187 102.517 6.22137 103.193 6.22137C103.553 6.22137 103.868 6.31162 104.093 6.49212C104.318 6.67261 104.499 6.98848 104.679 7.43972L107.515 14.6144L110.487 7.43972C110.667 6.98848 110.848 6.67261 111.073 6.53724C111.298 6.40187 111.613 6.2665 112.018 6.2665C112.514 6.2665 112.874 6.44699 113.099 6.85311C113.324 7.25922 113.279 7.71046 113.054 8.20682L109.182 17.0511C108.866 17.8633 108.281 18.2694 107.425 18.2694Z" fill="white"/>
<path d="M120.529 18.3145C119.223 18.3145 118.097 18.0889 117.107 17.5926C116.161 17.0962 115.441 16.4193 114.9 15.4717C114.405 14.5693 114.135 13.4863 114.135 12.268C114.135 11.0496 114.405 10.0118 114.9 9.10929C115.396 8.20682 116.071 7.48484 116.971 6.98848C117.872 6.49212 118.863 6.22137 119.988 6.22137C121.654 6.22137 122.96 6.76286 123.906 7.80071C124.851 8.83855 125.347 10.2825 125.347 12.0875C125.347 12.6741 124.987 12.9899 124.221 12.9899H117.017C117.242 15.0656 118.412 16.1035 120.574 16.1035C120.979 16.1035 121.429 16.0583 121.97 15.9681C122.51 15.8779 122.96 15.6974 123.456 15.4266C123.861 15.201 124.221 15.1108 124.491 15.201C124.761 15.2912 124.987 15.4717 125.077 15.6974C125.212 15.9681 125.212 16.2388 125.122 16.5547C125.032 16.8706 124.806 17.1413 124.446 17.3669C123.906 17.7279 123.23 17.9535 122.51 18.134C121.835 18.2243 121.159 18.3145 120.529 18.3145ZM120.123 8.20682C119.268 8.20682 118.547 8.47756 118.007 9.01905C117.467 9.56053 117.152 10.2825 117.017 11.2301H122.87C122.825 10.2825 122.555 9.51541 122.06 9.01905C121.609 8.47756 120.934 8.20682 120.123 8.20682Z" fill="white"/>
<path d="M128.994 18.2694C127.958 18.2694 127.463 17.773 127.463 16.7352V7.71044C127.463 6.71772 127.958 6.22136 128.904 6.22136C129.85 6.22136 130.345 6.71772 130.345 7.71044V8.43243C130.93 7.07871 132.146 6.31161 133.992 6.13111C134.668 6.04087 135.073 6.44698 135.118 7.30433C135.208 8.16168 134.803 8.61292 133.902 8.70317L133.362 8.74829C131.426 8.92879 130.435 9.92151 130.435 11.7716V16.6901C130.48 17.773 129.985 18.2694 128.994 18.2694Z" fill="white"/>
</svg>
