<svg width="21" height="31" viewBox="0 0 21 31" fill="none" xmlns="http://www.w3.org/2000/svg">
<path d="M10.573 31C5.80002 31 1.97261 27.9316 0.576731 23.0131C-1.31446 16.5153 1.25216 7.12955 11.1584 0.857351L12.5543 0V1.62445C12.5543 7.2198 14.8057 10.4236 16.967 13.492C18.7231 15.9738 20.3892 18.3654 20.3892 21.6143C20.3442 26.262 17.0121 31 10.573 31ZM10.8432 3.29403C2.78312 8.97962 0.666787 16.9665 2.28781 22.5167C3.50357 26.6681 6.5655 29.1499 10.573 29.1499C16.0665 29.1499 18.543 25.2242 18.543 21.6143C18.543 18.9068 17.1021 16.8763 15.4811 14.5298C13.4548 11.687 11.2034 8.48326 10.8432 3.29403Z" fill="#02B8EB"/>
<path d="M8.77214 30.6842C8.27683 30.6842 7.82655 30.6391 7.33124 30.5037L7.78152 28.7439C9.1774 29.1049 10.5733 28.6537 11.3838 27.5256C12.6446 25.8109 12.3744 23.1937 10.6633 20.4411C6.38564 13.6275 6.4757 6.90403 10.9785 1.08307L12.4194 2.16604C8.36689 7.44551 8.32186 13.2665 12.2393 19.4935C14.3557 22.8778 14.6258 26.2621 12.9148 28.6085C11.8341 29.9171 10.3481 30.6842 8.77214 30.6842Z" fill="#02B8EB"/>
</svg>
