<svg width="19" height="14" viewBox="0 0 20 14" fill="none" xmlns="http://www.w3.org/2000/svg">
<path d="M18.5121 4.8C18.5609 4.8 18.5609 4.8 18.6097 4.8H18.7072L18.756 4.75C18.8048 4.75 18.8048 4.7 18.8536 4.7L18.9024 4.65C18.9511 4.6 18.9511 4.6 18.9511 4.55C18.9511 4.5 18.9511 4.5 18.9511 4.45C18.9511 4.4 18.9511 4.4 18.9511 4.35V1.1C18.9511 0.5 18.5121 0.05 17.9755 0H2.02431C1.43895 0 0.999925 0.45 0.999925 1.05V4.35C0.999925 4.4 0.999925 4.4 0.999925 4.45V4.5C0.999925 4.55 1.04871 4.55 1.04871 4.6L1.09749 4.65C1.14627 4.65 1.14627 4.7 1.19505 4.7L1.24383 4.75H1.34139C1.39017 4.75 1.39017 4.75 1.43895 4.75C2.36578 4.75 3.09749 5.5 3.09749 6.45C3.09749 7.4 2.36578 8.15 1.43895 8.15C1.39017 8.15 1.39017 8.15 1.34139 8.15H1.24383L1.19505 8.2C1.14627 8.2 1.14627 8.25 1.09749 8.25L1.04871 8.3C1.04871 8.35 0.999925 8.35 0.999925 8.4C0.999925 8.45 0.999925 8.45 0.999925 8.5C0.999925 8.55 0.999925 8.55 0.999925 8.6V11.9C0.951144 12.5 1.39017 13 1.92675 13.05C1.97553 13 1.97553 13 2.02431 13H17.9755C18.5609 13 18.9999 12.55 18.9999 11.95V8.7C18.9999 8.4 18.8048 8.2 18.5121 8.2C17.5853 8.2 16.8536 7.45 16.8536 6.5C16.8536 5.55 17.5853 4.8 18.5121 4.8ZM6.8048 11.9C6.51212 11.9 6.317 11.7 6.317 11.4V9.7C6.317 9.4 6.51212 9.2 6.8048 9.2C7.09749 9.2 7.29261 9.4 7.29261 9.7V11.4C7.29261 11.65 7.04871 11.9 6.8048 11.9ZM6.8048 7.8C6.51212 7.8 6.317 7.6 6.317 7.3V5.6C6.317 5.3 6.51212 5.1 6.8048 5.1C7.09749 5.1 7.29261 5.3 7.29261 5.6V7.3C7.29261 7.55 7.04871 7.8 6.8048 7.8ZM6.8048 3.85C6.51212 3.85 6.317 3.65 6.317 3.35V1.65C6.317 1.35 6.51212 1.15 6.8048 1.15C7.09749 1.15 7.29261 1.35 7.29261 1.65V3.35C7.29261 3.6 7.04871 3.85 6.8048 3.85Z" fill="#0B5079"/>
</svg>
