<svg width="17" height="16" viewBox="0 0 17 16" fill="none" xmlns="http://www.w3.org/2000/svg">
<path d="M15.2106 8.02632V4.47369H13.3948" stroke="#080B3A" stroke-miterlimit="10"/>
<path d="M1 2.65789V13.3158C1 14.2632 1.78947 15.0526 2.73684 15.0526H15.1316V11.5789" stroke="#080B3A" stroke-miterlimit="10"/>
<path d="M13.3947 4.47368H2.73684C1.78947 4.47368 1 3.68421 1 2.73684C1 1.78947 1.78947 1 2.73684 1H13.3947V4.47368Z" stroke="#080B3A" stroke-miterlimit="10"/>
<path d="M11.6579 11.5789H15.2894C15.6842 11.5789 16 11.2632 16 10.8684V8.73684C16 8.34211 15.6842 8.02632 15.2894 8.02632H11.6579C10.7105 8.02632 9.92101 8.81579 9.92101 9.76316C9.84207 10.7895 10.7105 11.5789 11.6579 11.5789Z" stroke="#080B3A" stroke-miterlimit="10"/>
</svg>
