<svg width="1160" height="247" viewBox="0 0 1160 247" fill="none" xmlns="http://www.w3.org/2000/svg">
<path d="M1160 0H0V247H1160V0Z" fill="#00043D"/>
<path d="M435.914 0C435.914 98.5986 435.914 177.148 435.914 177.148H719.975C719.975 177.148 719.975 98.2324 719.975 0H435.914Z" fill="#02B8EB"/>
<path d="M0 177.148H1158.81L1160 247H0V177.148Z" fill="url(#paint0_radial)"/>
<path d="M533.129 55.0211C535.298 55.0211 537.057 53.2586 537.057 51.0845C537.057 48.9104 535.298 47.1479 533.129 47.1479C530.959 47.1479 529.2 48.9104 529.2 51.0845C529.2 53.2586 530.959 55.0211 533.129 55.0211Z" fill="#72D1F2"/>
<path d="M522.987 95.7605L522.439 98.1408C520.063 106.563 511.383 111.415 503.069 109.035C494.663 106.655 489.82 97.9577 492.196 89.6267L492.744 87.2465" fill="#338983"/>
<path d="M507.82 107.296C516.499 107.296 523.535 100.246 523.535 91.5493C523.535 82.8528 516.499 75.8028 507.82 75.8028C499.14 75.8028 492.104 82.8528 492.104 91.5493C492.104 100.246 499.14 107.296 507.82 107.296Z" fill="#69E2DC"/>
<path d="M507.82 75.8028C509.19 75.8028 510.652 75.9859 512.114 76.3521C520.52 78.7324 525.362 87.4296 522.987 95.7606L522.438 98.1408C520.52 105.099 514.215 109.676 507.272 109.676C505.901 109.676 504.439 109.493 502.977 109.127C494.571 106.746 489.729 98.0493 492.105 89.7183L492.653 87.338C494.663 80.2887 500.967 75.8028 507.82 75.8028ZM507.82 74.8873C500.419 74.8873 493.841 79.9225 491.83 87.0634L491.282 89.5352C488.815 98.3239 494.023 107.57 502.795 110.042C504.256 110.5 505.81 110.683 507.272 110.683C514.672 110.683 521.251 105.648 523.261 98.507L523.809 96.0352C524.997 91.8239 524.449 87.2465 522.256 83.4014C520.063 79.5563 516.5 76.7183 512.205 75.5282C510.926 75.0704 509.373 74.8873 507.82 74.8873Z" fill="#11748E"/>
<path d="M509.282 92.0986L517.139 93.3803H517.231C517.779 93.3803 518.327 93.0141 518.327 92.3732C518.601 87.7042 515.586 83.4014 511.018 82.1197C505.627 80.5634 499.962 83.5845 498.409 88.9859C496.856 94.3873 499.871 100.063 505.261 101.62H505.353C505.901 101.711 506.449 101.345 506.632 100.704L507.911 92.831C507.911 92.6479 508.002 92.5563 508.094 92.4648C508.185 92.3732 508.277 92.1901 508.368 92.1901C508.459 92.0986 508.642 92.007 508.733 92.007C509.007 92.0986 509.19 92.0986 509.282 92.0986Z" fill="white"/>
<path opacity="0.18" d="M521.342 101.07L521.708 84.1338C519.789 80.4718 516.408 77.6338 512.114 76.3521L512.754 108.669C516.408 107.387 519.515 104.641 521.342 101.07Z" fill="#00043D"/>
<path d="M513.941 51.0845L517.687 152.338L526.459 83.4014L513.941 51.0845Z" fill="#72D1F2"/>
<path d="M533.129 177.148L535.23 88.5282L544.915 168.634C544.915 168.634 547.747 151.056 548.387 151.423C549.026 151.88 554.326 177.148 554.326 177.148H533.129Z" fill="#72D1F2"/>
<path d="M635.003 173.486L641.216 47.5141L648.617 121.12L655.469 4.39436L669.449 173.486H635.003Z" fill="#72D1F2"/>
<path d="M778.724 166.528C778.724 166.528 789.14 156.092 800.378 156.916C811.616 157.739 816.002 177.148 816.002 177.148C816.002 177.148 829.067 177.148 854.559 177.148C878.314 177.148 912.851 176.965 912.851 176.965C877.949 179.894 847.067 182.824 860.315 188.958C841.859 191.063 793.069 189.599 774.338 189.599C794.622 194.268 814.997 203.423 814.997 203.423C814.997 203.423 684.341 198.204 679.773 206.901C676.027 213.951 701.062 217.155 701.062 217.155C701.062 217.155 612.253 217.979 498.135 216.331C527.19 210.197 518.327 206.627 488.267 206.901C458.116 207.176 424.31 207.176 400.006 207.634C419.011 202.873 431.071 199.852 431.071 199.852C431.071 199.852 372.231 197.472 324.171 196.739C343.907 193.352 364.647 193.352 363.551 186.394C362.454 179.437 257.473 177.056 257.473 177.056L366.931 175.683C366.931 175.683 362.911 161.859 368.302 157.648C378.626 149.683 397.996 165.704 397.996 165.704C397.996 165.704 398.818 131.099 423.67 127.07C448.522 123.042 475.841 172.113 475.841 172.113C495.12 149.592 514.398 151.972 527.19 175.317C539.25 160.852 552.681 153.711 575.98 169.824C588.863 119.93 626.597 138.423 631.348 173.852C642.587 154.535 673.012 152.43 700.788 179.345C732.949 79.6479 778.724 166.528 778.724 166.528Z" fill="#9BDBF2"/>
<path d="M388.836 145.503C390.876 144.504 391.308 141.19 389.801 138.101C388.294 135.012 385.419 133.318 383.379 134.318C381.339 135.317 380.907 138.631 382.414 141.72C383.921 144.809 386.796 146.503 388.836 145.503Z" fill="#9BDBF2"/>
<path d="M568.853 160.669C569.661 160.669 570.315 158.292 570.315 155.359C570.315 152.427 569.661 150.049 568.853 150.049C568.046 150.049 567.391 152.427 567.391 155.359C567.391 158.292 568.046 160.669 568.853 160.669Z" fill="#9BDBF2"/>
<path d="M627 140.782C628.229 137.356 627.493 133.955 625.356 133.185C623.22 132.416 620.491 134.569 619.262 137.994C618.033 141.42 618.769 144.821 620.905 145.591C623.042 146.361 625.771 144.207 627 140.782Z" fill="#9BDBF2"/>
<path d="M695.037 165.234C697.687 161.171 697.506 156.352 694.634 154.471C691.762 152.591 687.285 154.36 684.635 158.423C681.985 162.486 682.166 167.305 685.038 169.186C687.911 171.066 692.387 169.297 695.037 165.234Z" fill="#9BDBF2"/>
<path d="M748.847 108.577C746.928 111.507 743.639 118.19 745.192 119.197C746.745 120.204 752.41 115.077 754.329 112.148C756.248 109.218 756.613 106.014 755.06 105.007C753.507 104.092 750.766 105.648 748.847 108.577Z" fill="#9BDBF2"/>
<path d="M474.745 140.07C475.202 143.366 476.207 154.901 474.653 155.084C473.1 155.268 469.446 144.099 469.08 140.803C468.623 137.507 469.628 134.669 471.182 134.486C472.735 134.303 474.288 136.866 474.745 140.07Z" fill="#9BDBF2"/>
<path d="M597.086 172.845C601.728 172.845 605.492 167.763 605.492 161.493C605.492 155.223 601.728 150.141 597.086 150.141C592.443 150.141 588.68 155.223 588.68 161.493C588.68 167.763 592.443 172.845 597.086 172.845Z" fill="#72D1F2"/>
<path d="M615.085 188.958C619.526 188.958 623.125 185.351 623.125 180.901C623.125 176.452 619.526 172.845 615.085 172.845C610.645 172.845 607.045 176.452 607.045 180.901C607.045 185.351 610.645 188.958 615.085 188.958Z" fill="#72D1F2"/>
<path d="M494.48 163.965C479.953 168.451 467.801 185.57 481.323 183.831C494.846 182.092 506.449 160.303 494.48 163.965Z" fill="#72D1F2"/>
<path d="M505.901 164.423C502.338 166.07 495.211 179.345 503.16 177.972C511.109 176.507 514.946 160.211 505.901 164.423Z" fill="#72D1F2"/>
<path d="M400.646 94.5704C403.844 92.2817 409.6 105.648 407.955 107.387C406.219 109.127 397.174 97.0423 400.646 94.5704Z" fill="#9BDBF2"/>
<path d="M707.275 208.275C727.741 205.437 748.39 209.648 730.939 212.211C713.488 214.775 688.727 210.838 707.275 208.275Z" fill="#9BDBF2"/>
<path d="M518.418 220.817C507.911 218.711 490.095 227.592 507.728 227.775C525.362 227.958 537.971 224.845 518.418 220.817Z" fill="#9BDBF2"/>
<path d="M544.458 222.282C536.601 222.007 530.022 227.592 541.169 226.951C552.316 226.31 556.975 222.739 544.458 222.282Z" fill="#9BDBF2"/>
<path d="M815.362 219.627C813.17 217.063 785.12 214.592 771.506 218.254C766.572 219.627 787.769 224.113 801.475 222.739C815.18 221.275 817.555 222.19 815.362 219.627ZM782.105 220.908C777.262 220.451 774.064 219.535 773.973 218.803C773.973 218.803 783.11 215.324 788.226 217.338C793.343 219.352 786.947 221.366 782.105 220.908ZM787.952 221.549C787.13 221.092 793.251 220.725 793.8 221.549C794.257 222.465 790.236 222.923 787.952 221.549Z" fill="#9BDBF2"/>
<path d="M593.248 232.627C588.314 234 609.42 238.486 623.217 237.113C636.922 235.739 639.297 236.655 637.105 234C634.912 231.345 606.862 228.873 593.248 232.627Z" fill="#9BDBF2"/>
<path d="M813.261 225.028C814.449 221.641 832.814 223.747 834.367 225.028C835.92 226.31 830.073 228.049 823.403 228.049C816.733 228.141 812.804 226.31 813.261 225.028Z" fill="#9BDBF2"/>
<path d="M738.34 235.007C734.868 229.606 693.478 222.19 690.737 236.197C689.732 241.415 699.874 243.979 715.041 243.704C730.208 243.43 741.903 240.317 738.34 235.007ZM699.509 239.584C693.022 238.394 697.773 235.648 698.229 235.465C702.25 233.176 709.194 233.268 711.752 235.923C714.31 238.577 705.996 240.775 699.509 239.584ZM718.878 236.655C711.478 235.831 704.625 229.239 705.904 229.056C714.95 228.232 732.218 231.528 732.035 233.176C731.853 234.824 729.568 237.845 718.878 236.655Z" fill="#9BDBF2"/>
<path d="M756.887 232.261C758.075 228.873 776.44 230.979 777.993 232.261C779.546 233.542 773.699 235.282 767.029 235.282C760.359 235.282 756.43 233.542 756.887 232.261Z" fill="#9BDBF2"/>
<path d="M861.96 230.155C862.691 228.141 873.655 229.423 874.568 230.155C875.482 230.887 872.01 231.986 868.081 231.986C864.061 231.986 861.686 230.887 861.96 230.155Z" fill="#9BDBF2"/>
<path d="M868.812 208.915C869.543 206.901 880.507 208.183 881.421 208.915C882.335 209.648 878.863 210.746 874.934 210.746C870.914 210.838 868.538 209.648 868.812 208.915Z" fill="#9BDBF2"/>
<path d="M708.554 220.451C709.559 217.613 725.183 219.352 726.553 220.451C727.832 221.549 722.899 223.014 717.234 223.014C711.478 223.106 708.097 221.458 708.554 220.451Z" fill="#9BDBF2"/>
<path d="M831.169 228.599C831.169 228.049 835.646 228.232 836.011 228.599C836.377 228.965 835.006 229.88 833.91 229.88C832.905 229.972 831.169 229.239 831.169 228.599Z" fill="#9BDBF2"/>
<path d="M784.572 230.613C784.572 230.063 789.049 230.246 789.414 230.613C789.78 230.979 788.409 231.894 787.313 231.894C786.216 231.986 784.572 231.254 784.572 230.613Z" fill="#9BDBF2"/>
<path d="M913.125 231.528C913.125 230.979 917.602 231.162 917.968 231.528C918.333 231.894 916.963 232.81 915.866 232.81C914.861 232.901 913.125 232.077 913.125 231.528Z" fill="#9BDBF2"/>
<path d="M769.131 235.831C769.131 235.282 773.608 235.465 773.973 235.831C774.338 236.197 772.968 237.113 771.872 237.113C770.775 237.204 769.039 236.472 769.131 235.831Z" fill="#9BDBF2"/>
<path d="M748.573 221.092C748.573 220.542 753.05 220.725 753.415 221.092C753.781 221.458 752.41 222.373 751.314 222.373C750.309 222.465 748.573 221.641 748.573 221.092Z" fill="#9BDBF2"/>
<path d="M906.364 227.775C906.364 227.225 910.841 227.408 911.207 227.775C911.572 228.141 910.202 229.056 909.105 229.056C908.009 229.056 906.364 228.415 906.364 227.775Z" fill="#9BDBF2"/>
<path d="M743.274 240.408C743.274 240.042 746.928 239.768 747.202 240.408C747.385 240.775 746.471 241.324 745.284 241.324C744.461 241.324 743.182 240.775 743.274 240.408Z" fill="#9BDBF2"/>
<path d="M685.164 230.796C685.164 230.43 688.819 230.155 689.093 230.796C689.275 231.162 688.362 231.711 687.174 231.711C686.352 231.711 685.164 231.254 685.164 230.796Z" fill="#9BDBF2"/>
<path d="M842.498 215.049C842.59 214.317 853.645 213.768 854.742 215.049C855.381 215.782 852.458 216.789 848.711 216.789C846.245 216.789 842.407 215.782 842.498 215.049Z" fill="#9BDBF2"/>
<path d="M834.001 227.225C834.093 227.775 836.011 227.5 836.103 226.951C836.194 226.493 833.91 226.401 834.001 227.225Z" fill="#9BDBF2"/>
<path d="M875.482 228.232C875.574 228.782 877.492 228.507 877.584 227.958C877.584 227.592 875.391 227.408 875.482 228.232Z" fill="#9BDBF2"/>
<path d="M1012.9 227.683C1012.99 228.232 1014.91 227.958 1015 227.408C1015.09 226.951 1012.9 226.859 1012.9 227.683Z" fill="#9BDBF2"/>
<path d="M1109.38 224.204C1109.47 224.754 1111.39 224.479 1111.48 223.93C1111.58 223.472 1109.29 223.38 1109.38 224.204Z" fill="#9BDBF2"/>
<path d="M973.062 191.979C969.773 193.352 983.844 197.838 992.981 196.465C1002.12 195.092 1003.67 196.007 1002.21 193.352C1000.75 190.697 982.108 188.225 973.062 191.979Z" fill="#9BDBF2"/>
<path d="M903.897 219.627C898.964 221 900.425 222.831 914.222 222.648C928.018 222.556 930.577 221.915 928.11 220.542C924.455 218.437 917.511 215.965 903.897 219.627Z" fill="#9BDBF2"/>
<path d="M982.016 185.661C982.747 183.647 993.711 184.929 994.625 185.661C995.539 186.394 992.067 187.492 988.138 187.492C984.118 187.584 981.742 186.485 982.016 185.661Z" fill="#9BDBF2"/>
<path d="M935.602 204.887C936.333 202.873 947.297 204.155 948.211 204.887C949.124 205.62 945.652 206.718 941.723 206.718C937.703 206.718 935.328 205.62 935.602 204.887Z" fill="#9BDBF2"/>
<path d="M1017.47 184.746C1017.56 185.296 1019.48 185.021 1019.57 184.472C1019.66 184.106 1017.47 183.923 1017.47 184.746Z" fill="#9BDBF2"/>
<path d="M444.319 214.042C443.223 218.528 483.516 218.803 477.12 213.127C472.187 208.641 445.781 208.183 444.319 214.042Z" fill="#9BDBF2"/>
<path d="M433.904 215.049C425.863 212.028 391.875 213.401 405.306 216.606C418.737 219.901 442.218 218.162 433.904 215.049Z" fill="#9BDBF2"/>
<path d="M448.888 220.634C441.578 220.268 429.518 221.549 438.929 222.648C448.34 223.746 471.273 221.732 448.888 220.634Z" fill="#9BDBF2"/>
<path d="M342.902 210.655C351.076 210.655 357.703 209.179 357.703 207.359C357.703 205.539 351.076 204.063 342.902 204.063C334.727 204.063 328.1 205.539 328.1 207.359C328.1 209.179 334.727 210.655 342.902 210.655Z" fill="#9BDBF2"/>
<path d="M314.03 203.972C320.337 203.972 325.451 203.398 325.451 202.69C325.451 201.982 320.337 201.408 314.03 201.408C307.722 201.408 302.609 201.982 302.609 202.69C302.609 203.398 307.722 203.972 314.03 203.972Z" fill="#9BDBF2"/>
<path d="M262.772 192.437C262.772 194.176 266.884 196.739 276.843 196.739C286.802 196.739 298.863 194.176 298.863 192.437C298.863 190.697 290.731 189.324 280.772 189.324C270.813 189.324 262.772 190.697 262.772 192.437Z" fill="#9BDBF2"/>
<path d="M289.178 190.88C282.965 189.782 274.011 192.345 281.411 193.535C288.812 194.634 298.04 192.437 289.178 190.88Z" fill="#02B8EB"/>
<path d="M277.757 190.331C274.376 190.423 269.808 192.162 273.919 191.979C278.031 191.704 280.863 190.239 277.757 190.331Z" fill="#02B8EB"/>
<path d="M244.864 195.183C250.617 195.183 255.28 194.445 255.28 193.535C255.28 192.625 250.617 191.887 244.864 191.887C239.112 191.887 234.449 192.625 234.449 193.535C234.449 194.445 239.112 195.183 244.864 195.183Z" fill="#9BDBF2"/>
<path d="M224.033 187.859C224.033 188.683 230.063 189.873 235.636 189.873C241.118 189.873 242.123 188.683 242.123 187.859C242.123 187.035 237.646 186.394 232.164 186.394C226.591 186.394 224.033 187.035 224.033 187.859Z" fill="#9BDBF2"/>
<path d="M194.978 201.592C190.227 199.211 179.263 200.585 184.379 201.592C189.496 202.599 198.176 203.239 194.978 201.592Z" fill="#9BDBF2"/>
<path d="M203.201 188.134C199.089 187.401 197.353 190.056 201.191 189.873C205.028 189.599 207.769 188.958 203.201 188.134Z" fill="#9BDBF2"/>
<path d="M452.999 211.204C443.497 212.577 442.675 215.416 453.548 215.507C464.42 215.599 456.197 210.746 452.999 211.204Z" fill="#02B8EB"/>
<path d="M461.04 210.563C457.202 211.113 459.395 214.866 463.324 214.408C464.146 214.317 463.781 210.197 461.04 210.563Z" fill="#02B8EB"/>
<path d="M465.608 210.655C462.958 210.838 465.06 214.408 469.902 214.225C474.745 214.225 468.258 210.472 465.608 210.655Z" fill="#02B8EB"/>
<path d="M472.187 225.669C468.806 224.204 458.025 226.31 465.791 226.951C473.557 227.592 475.841 227.225 472.187 225.669Z" fill="#9BDBF2"/>
<path d="M481.049 224.204C478.582 223.93 475.11 225.303 478.491 226.218C481.871 227.134 483.516 224.387 481.049 224.204Z" fill="#9BDBF2"/>
<path d="M371.408 200.859C362.82 200.493 358.8 201.775 364.921 203.423C371.043 205.07 375.063 201.042 371.408 200.859Z" fill="#9BDBF2"/>
<path d="M382.555 213.401C379.357 213.859 384.2 215.873 388.677 215.965C393.154 216.148 388.403 212.669 382.555 213.401Z" fill="#9BDBF2"/>
<path d="M356.15 218.345C349.206 215.965 344.364 219.901 350.211 220.542C355.967 221.183 358.8 219.261 356.15 218.345Z" fill="#9BDBF2"/>
<path d="M388.677 197.38C382.19 196.648 373.784 200.493 387.124 200.768C400.463 201.134 394.342 198.021 388.677 197.38Z" fill="#9BDBF2"/>
<path d="M407.498 196.099C400.006 197.747 394.342 203.239 405.032 202.416C415.722 201.5 428.97 191.338 407.498 196.099Z" fill="#9BDBF2"/>
<path d="M345.643 180.81C332.668 179.437 324.811 182.183 336.415 183.19C348.018 184.197 356.333 181.908 345.643 180.81Z" fill="#9BDBF2"/>
<path d="M348.384 187.585C342.81 187.951 334.405 189.232 343.998 189.324C353.683 189.416 353.592 187.218 348.384 187.585Z" fill="#9BDBF2"/>
<path d="M440.391 205.986C429.335 205.254 422.3 208.183 431.345 209.099C440.482 210.106 455.101 206.993 440.391 205.986Z" fill="#9BDBF2"/>
<path d="M822.032 192.528C829.803 192.528 836.103 191.79 836.103 190.88C836.103 189.97 829.803 189.232 822.032 189.232C814.261 189.232 807.962 189.97 807.962 190.88C807.962 191.79 814.261 192.528 822.032 192.528Z" fill="#9BDBF2"/>
<path d="M773.699 205.254C781.016 205.254 786.947 204.393 786.947 203.331C786.947 202.269 781.016 201.408 773.699 201.408C766.382 201.408 760.451 202.269 760.451 203.331C760.451 204.393 766.382 205.254 773.699 205.254Z" fill="#9BDBF2"/>
<path d="M754.694 205.254C761.809 205.254 767.577 203.983 767.577 202.416C767.577 200.848 761.809 199.577 754.694 199.577C747.579 199.577 741.812 200.848 741.812 202.416C741.812 203.983 747.579 205.254 754.694 205.254Z" fill="#9BDBF2"/>
<path d="M707.914 205.254C713.263 205.254 717.599 203.778 717.599 201.958C717.599 200.138 713.263 198.662 707.914 198.662C702.566 198.662 698.229 200.138 698.229 201.958C698.229 203.778 702.566 205.254 707.914 205.254Z" fill="#9BDBF2"/>
<path d="M620.11 222.282C635.148 222.282 647.338 219.372 647.338 215.782C647.338 212.192 635.148 209.282 620.11 209.282C605.073 209.282 592.883 212.192 592.883 215.782C592.883 219.372 605.073 222.282 620.11 222.282Z" fill="#9BDBF2"/>
<path d="M587.675 220.542C596.102 220.542 602.933 218.657 602.933 216.331C602.933 214.005 596.102 212.12 587.675 212.12C579.248 212.12 572.417 214.005 572.417 216.331C572.417 218.657 579.248 220.542 587.675 220.542Z" fill="#9BDBF2"/>
<path d="M565.29 216.972C565.29 217.796 568.762 218.345 573.147 218.345C577.442 218.345 562.732 217.704 562.732 216.972C562.732 216.148 577.533 215.599 573.147 215.599C568.853 215.599 565.29 216.239 565.29 216.972Z" fill="#9BDBF2"/>
<path d="M567.574 227.866C570.248 227.866 572.417 226.76 572.417 225.394C572.417 224.029 570.248 222.923 567.574 222.923C564.9 222.923 562.732 224.029 562.732 225.394C562.732 226.76 564.9 227.866 567.574 227.866Z" fill="#9BDBF2"/>
<path d="M528.926 218.437C534.577 218.437 539.159 216.674 539.159 214.5C539.159 212.326 534.577 210.563 528.926 210.563C523.274 210.563 518.693 212.326 518.693 214.5C518.693 216.674 523.274 218.437 528.926 218.437Z" fill="#9BDBF2"/>
<path d="M894.304 174.768C886.812 179.803 884.802 190.056 889.827 197.563C890.101 197.93 890.375 198.296 890.649 198.662L892.202 200.768C897.228 208.275 907.461 210.289 914.953 205.254C922.445 200.218 924.455 189.965 919.43 182.458L917.054 179.254C911.938 171.746 901.796 169.732 894.304 174.768Z" fill="#13B5EC" stroke="#11748E" stroke-width="2" stroke-miterlimit="10"/>
<path d="M917.054 179.254L919.43 182.458C924.455 189.965 922.445 200.218 914.953 205.254C907.461 210.289 897.228 208.275 892.202 200.768L889.827 197.563" fill="#004991"/>
<path d="M919.191 193.179C921.838 184.473 916.941 175.265 908.252 172.612C899.564 169.959 890.374 174.866 887.726 183.572C885.078 192.278 889.976 201.486 898.664 204.139C907.353 206.792 916.543 201.885 919.191 193.179Z" fill="#006AE3"/>
<path d="M900.974 194.725L904.537 181.908L905.999 182.275L902.344 195.183L900.974 194.725Z" fill="white"/>
<path d="M910.476 188.225L905.816 188.134L906.09 183.373L907.461 183.465L907.369 185.754C907.369 185.754 909.105 184.197 908.1 181.725C907.461 180.444 907.004 180.261 906.09 179.803C905.176 179.437 903.075 179.162 901.705 181.451C900.974 182.915 900.974 184.197 902.527 186.303L901.887 187.951C901.887 187.951 900.06 185.662 899.786 184.38C899.603 183.373 899.329 181.359 901.43 179.345C902.527 178.338 904.354 177.606 906.912 178.43C908.192 178.887 911.024 181.359 909.379 185.021C909.105 185.662 908.466 186.577 908.466 186.577L910.384 186.669L910.476 188.225Z" fill="white"/>
<path d="M905.176 197.563C904.08 198.57 902.161 199.211 899.603 198.296C898.324 197.838 895.583 195.183 897.228 191.613C897.502 190.972 898.233 190.148 898.233 190.148L896.314 189.965L896.405 188.5L901.065 188.683L900.608 193.444L899.238 193.352L899.42 191.063C899.42 191.063 897.684 192.62 898.598 195.092C899.238 196.373 899.603 196.556 900.608 197.014C901.43 197.38 903.623 197.746 904.994 195.549C905.725 194.085 905.816 192.803 904.263 190.606L904.902 188.958C904.902 188.958 906.638 191.246 906.912 192.528C907.095 193.535 907.278 195.549 905.176 197.563Z" fill="white"/>
<path d="M883.522 199.577H928.841L912.851 214.317H897.41L883.522 199.577Z" fill="#02B8EB"/>
<path d="M871.371 197.746H964.657L917.968 206.261L905.085 201.958L887.908 206.535L871.371 197.746Z" fill="#9BDBF2"/>
<path d="M431.985 194.817C432.259 194.176 432.533 193.535 432.716 192.894C435.274 184.563 430.614 175.775 422.3 173.211L418.554 172.296C410.239 169.732 401.468 174.401 398.91 182.732C397.631 187.035 398.27 191.521 400.28 195.183C410.879 194.908 421.478 193.993 431.985 194.817Z" fill="#13B5EC" stroke="#11748E" stroke-width="2" stroke-miterlimit="10"/>
<path d="M412.432 195.732C416.452 195.916 420.473 195.824 424.401 196.007C426.96 195.366 429.609 194.725 432.259 194.451C432.442 193.993 432.624 193.444 432.807 192.894C435.365 184.563 430.706 175.775 422.391 173.211L418.645 172.296L411.519 195.732C411.793 195.732 412.067 195.732 412.432 195.732Z" fill="#BA7A1C"/>
<path d="M405.306 194.908C408.229 195.092 411.153 194.908 413.985 194.725C418.737 194.359 423.488 193.901 428.33 193.993C428.604 193.352 428.878 192.711 429.152 191.979C431.711 183.648 427.051 174.859 418.737 172.296C410.422 169.732 401.651 174.401 399.093 182.732C397.813 186.761 398.362 190.972 400.098 194.451C401.742 194.634 403.478 194.817 405.306 194.908Z" fill="#F5AC37"/>
<path d="M423.305 182C423.396 181.908 423.396 181.817 423.305 181.725L422.483 180.901C422.391 180.81 422.3 180.718 422.209 180.627C422.117 180.535 422.117 180.444 422.026 180.444L420.929 181.542C420.838 181.634 420.747 181.634 420.655 181.542C420.29 181.085 419.833 180.718 419.376 180.261C419.285 180.169 419.285 180.077 419.376 179.986L420.29 178.979C420.381 178.887 420.381 178.796 420.29 178.704L419.102 177.606C418.919 177.423 418.919 177.423 418.828 177.606L417.64 178.887C417.549 178.979 417.366 179.07 417.275 178.979C416.727 178.796 416.178 178.613 415.63 178.521C415.082 178.43 414.534 178.338 413.986 178.338C413.255 178.338 412.524 178.43 411.793 178.613C410.696 178.887 409.783 179.345 408.869 179.986C408.412 180.261 408.047 180.627 407.681 180.993L402.565 186.211C402.473 186.394 402.473 186.394 402.565 186.486L406.311 190.148C406.402 190.239 406.402 190.331 406.311 190.423L404.849 191.887C404.757 191.979 404.757 191.979 404.849 192.07L406.037 193.261C406.128 193.352 406.219 193.352 406.219 193.261L407.681 191.704C407.773 191.613 407.773 191.613 407.864 191.704L409.143 192.986C409.234 193.077 409.234 193.169 409.143 193.261L407.59 194.908L407.955 195.275C408.321 194.542 409.052 194.085 409.783 194.085C410.879 194.085 411.884 194.085 412.98 194.085L412.158 193.352C411.975 193.261 412.067 193.169 412.158 193.077L419.65 185.296C419.742 185.204 419.833 185.021 420.016 184.93C420.107 184.93 420.198 185.021 420.198 185.021C420.655 186.303 420.655 187.585 420.29 188.866L420.198 188.958C420.107 189.232 420.016 189.507 419.924 189.69C419.65 190.331 419.285 190.972 418.828 191.521C418.737 191.704 418.554 191.887 418.371 192.07L416.452 194.085C417.183 194.085 418.006 194.176 418.737 194.268L419.376 193.627C419.924 193.077 420.381 192.528 420.838 191.887C421.295 191.246 421.66 190.514 421.934 189.69C422.117 189.232 422.209 188.866 422.3 188.408C422.391 187.951 422.391 187.493 422.391 187.035C422.391 185.845 422.209 184.563 421.66 183.465C421.569 183.373 421.66 183.19 421.752 183.099L423.305 182ZM408.047 188.958C407.955 189.049 407.864 189.049 407.773 188.958L405.306 186.577C405.214 186.486 405.214 186.394 405.306 186.303L408.96 182.549C409.326 182.183 409.783 181.817 410.239 181.451C411.153 180.81 412.25 180.444 413.346 180.352C413.529 180.352 413.803 180.352 413.986 180.352C414.351 180.352 414.716 180.352 415.173 180.444C415.447 180.444 415.63 180.535 415.904 180.627L415.996 180.718C415.996 180.81 415.996 180.901 415.996 180.901L408.047 188.958ZM419.193 183.373L415.082 187.676L411.062 191.887C410.879 192.07 410.879 192.07 410.696 191.887L409.417 190.697C409.326 190.606 409.326 190.514 409.417 190.423L417.64 181.908C417.732 181.817 417.823 181.817 417.914 181.908C418.371 182.275 418.828 182.732 419.193 183.19C419.285 183.19 419.285 183.282 419.193 183.373Z" fill="#FEFEFD"/>
<path d="M754.329 192.528C745.74 190.972 737.609 196.739 736.055 205.345C735.964 205.803 735.964 206.261 735.873 206.627L735.507 209.099C733.954 217.704 739.71 225.852 748.299 227.408C756.887 228.965 765.019 223.197 766.572 214.592L767.029 210.746C768.674 202.232 762.917 194.085 754.329 192.528Z" fill="#13B5EC" stroke="#11748E" stroke-width="2" stroke-miterlimit="10"/>
<path d="M767.12 210.838L766.663 214.683C765.11 223.289 756.979 228.965 748.39 227.5C739.802 225.944 734.137 217.796 735.599 209.19L736.055 205.345" fill="#B56916"/>
<path d="M752.49 223.825C761.156 223.342 767.791 215.912 767.31 207.228C766.829 198.545 759.413 191.896 750.747 192.379C742.081 192.861 735.445 200.291 735.927 208.975C736.408 217.658 743.824 224.307 752.49 223.825Z" fill="#F7931A"/>
<path d="M765.659 211.57C763.74 219.352 755.882 224.113 748.116 222.19C740.35 220.268 735.599 212.394 737.517 204.613C739.436 196.831 747.294 192.07 755.06 193.993C762.918 195.824 767.577 203.789 765.659 211.57Z" fill="#F7931A"/>
<path d="M757.984 205.986C758.258 204.063 756.796 203.056 754.786 202.324L755.425 199.669L753.872 199.303L753.233 201.866C752.776 201.775 752.41 201.683 751.953 201.592L752.593 199.028L751.04 198.662L750.4 201.317C750.035 201.225 749.669 201.134 749.395 201.042L747.202 200.493L746.745 202.232L747.933 202.507C748.573 202.69 748.664 203.056 748.664 203.423L747.933 206.444C747.933 206.444 748.025 206.444 748.116 206.535C748.025 206.535 748.025 206.535 747.933 206.535L746.928 210.746C746.837 210.93 746.654 211.204 746.197 211.113L745.009 210.838L744.187 212.669L746.289 213.218C746.654 213.31 747.02 213.401 747.385 213.493L746.745 216.148L748.299 216.514L748.938 213.859C749.395 213.951 749.761 214.042 750.217 214.225L749.578 216.88L751.131 217.246L751.771 214.592C754.512 215.141 756.522 214.866 757.344 212.394C758.075 210.38 757.344 209.282 755.882 208.549C756.979 208.092 757.801 207.359 757.984 205.986ZM754.329 211.113C753.872 213.127 750.491 212.028 749.395 211.754L750.309 208.275C751.405 208.458 754.877 209.007 754.329 211.113ZM754.877 205.894C754.42 207.725 751.679 206.81 750.766 206.535L751.588 203.331C752.41 203.606 755.334 204.063 754.877 205.894Z" fill="white"/>
<path d="M772.42 213.035H729.934V228.049L750.4 232.993L769.13 220.725L772.42 213.035Z" fill="#02B8EB"/>
<path d="M723.995 212.211H787.861L769.679 217.521L756.887 214.866L735.873 221L723.995 212.211Z" fill="#9BDBF2"/>
<path d="M477.76 210.838C471.912 204.43 461.953 204.063 455.558 209.923C455.192 210.197 454.918 210.563 454.644 210.838L452.908 212.669C446.512 218.528 446.147 228.507 451.994 234.916C457.842 241.324 467.801 241.69 474.197 235.831L476.938 233.085C483.242 227.225 483.699 217.247 477.76 210.838Z" fill="#13B5EC" stroke="#11748E" stroke-width="2" stroke-miterlimit="10"/>
<path d="M476.846 233.176L474.105 235.923C467.71 241.782 457.751 241.415 451.903 235.007C446.055 228.599 446.421 218.62 452.817 212.761L455.558 210.014" fill="#999999"/>
<path d="M466.156 237.296C474.836 237.296 481.872 230.246 481.872 221.549C481.872 212.853 474.836 205.803 466.156 205.803C457.477 205.803 450.441 212.853 450.441 221.549C450.441 230.246 457.477 237.296 466.156 237.296Z" fill="white"/>
<path d="M468.989 210.289L466.705 211.113L460.583 213.401L458.299 214.225L456.38 225.486L458.207 227.042L463.324 231.254L465.151 232.81L467.435 231.986L473.557 229.697L475.841 228.873L477.76 217.613L475.933 216.056L470.907 211.845L468.989 210.289ZM460.857 223.746L461.953 217.247L468.075 214.958L473.1 219.169L472.004 225.669L465.882 227.958L460.857 223.746Z" fill="#2A5ADA"/>
<path d="M490.734 229.423H444.319L448.979 244.345H478.765L490.734 229.423Z" fill="#02B8EB"/>
<path d="M438.289 228.873H492.105L477.943 233.908L470.725 231.62L452.086 238.211L445.873 231.62L438.289 228.873Z" fill="#9BDBF2"/>
<path d="M274.742 198.845C266.153 197.289 258.021 203.056 256.468 211.662C256.377 212.12 256.377 212.577 256.285 212.944L255.92 215.415C254.367 224.021 260.123 232.169 268.711 233.725C277.3 235.282 285.432 229.514 286.985 220.908L287.442 217.063C288.995 208.549 283.33 200.31 274.742 198.845Z" fill="#13B5EC" stroke="#11748E" stroke-width="2" stroke-miterlimit="10"/>
<path d="M287.533 217.063L287.076 220.908C285.523 229.514 277.391 235.19 268.803 233.725C260.214 232.169 254.55 224.021 256.011 215.416L256.468 211.57" fill="#0F5768"/>
<path d="M272.882 230.048C281.548 229.566 288.183 222.135 287.702 213.452C287.22 204.768 279.805 198.12 271.138 198.602C262.472 199.085 255.837 206.515 256.318 215.199C256.8 223.882 264.215 230.53 272.882 230.048Z" fill="white"/>
<path d="M272.001 230.155C280.73 230.155 287.807 223.064 287.807 214.317C287.807 205.57 280.73 198.479 272.001 198.479C263.271 198.479 256.194 205.57 256.194 214.317C256.194 223.064 263.271 230.155 272.001 230.155Z" fill="url(#paint1_linear)"/>
<path d="M277.117 222.099L275.016 208.275C274.924 207.542 274.559 207.085 273.919 206.993L273.463 206.901C272.914 206.718 272.366 206.993 271.909 207.542L268.346 212.486L266.61 212.028C266.062 211.937 265.605 212.211 265.422 212.761C265.331 213.31 265.605 213.768 266.153 213.951L267.067 214.134L263.595 218.803C263.503 218.894 263.503 218.986 263.412 219.169C263.321 219.444 263.412 219.718 263.503 219.901C263.595 220.084 263.869 220.268 264.143 220.359C264.326 220.359 264.509 220.359 264.691 220.359C264.874 220.268 265.057 220.176 265.148 219.993L268.986 214.683L270.63 215.049C271.178 215.141 271.635 214.866 271.818 214.317C271.909 213.768 271.635 213.31 271.087 213.127L270.173 212.944L273.097 208.915L275.016 222.373C275.016 222.556 275.107 222.739 275.29 222.923C275.381 223.106 275.564 223.197 275.747 223.197C276.021 223.289 276.295 223.197 276.478 223.106C276.66 223.014 276.843 222.739 276.934 222.465C277.209 222.373 277.209 222.282 277.117 222.099Z" fill="white"/>
<path d="M295.482 218.345H249.067L253.727 233.359L283.696 241.599L295.482 218.345Z" fill="#02B8EB"/>
<path d="M245.23 216.148H297.766L287.259 219.993H277.209L263.595 223.93L245.23 216.148Z" fill="#72D1F2"/>
<path d="M390.321 191.979H441.853L431.163 198.57L397.265 196.373L390.321 191.979Z" fill="#9BDBF2"/>
<path d="M0 0H1162V1145H0V0Z" fill="#001F59" fill-opacity="0.5"/>
<defs>
<radialGradient id="paint0_radial" cx="0" cy="0" r="1" gradientUnits="userSpaceOnUse" gradientTransform="translate(582.878 176.537) scale(567.18 286.542)">
<stop offset="0.7023" stop-color="#02B8EB"/>
<stop offset="1" stop-color="#00043D"/>
</radialGradient>
<linearGradient id="paint1_linear" x1="285.747" y1="207.537" x2="258.175" y2="221.049" gradientUnits="userSpaceOnUse">
<stop stop-color="#B6509E"/>
<stop offset="1" stop-color="#2EBAC6"/>
</linearGradient>
</defs>
</svg>
