<svg width="1160" height="253" viewBox="0 0 1160 252" fill="none" xmlns="http://www.w3.org/2000/svg">
<path d="M1160 0H0V213.603H1160V0Z" fill="url(#paint0_radial)"/>
<path d="M427.051 49.9804C427.758 49.9804 428.33 49.4088 428.33 48.7036C428.33 47.9984 427.758 47.4267 427.051 47.4267C426.345 47.4267 425.772 47.9984 425.772 48.7036C425.772 49.4088 426.345 49.9804 427.051 49.9804Z" fill="#61C2EE"/>
<path d="M427.691 3.64821C428.044 3.64821 428.33 3.36237 428.33 3.00977C428.33 2.65718 428.044 2.37134 427.691 2.37134C427.337 2.37134 427.051 2.65718 427.051 3.00977C427.051 3.36237 427.337 3.64821 427.691 3.64821Z" fill="#61C2EE"/>
<path d="M460.217 55.7264C460.571 55.7264 460.857 55.4406 460.857 55.088C460.857 54.7354 460.571 54.4495 460.217 54.4495C459.864 54.4495 459.578 54.7354 459.578 55.088C459.578 55.4406 459.864 55.7264 460.217 55.7264Z" fill="#61C2EE"/>
<path d="M414.625 11.583C414.928 11.583 415.173 11.338 415.173 11.0358C415.173 10.7336 414.928 10.4886 414.625 10.4886C414.322 10.4886 414.077 10.7336 414.077 11.0358C414.077 11.338 414.322 11.583 414.625 11.583Z" fill="#61C2EE"/>
<path d="M381.093 6.47556C381.346 6.47556 381.55 6.27139 381.55 6.01953C381.55 5.76768 381.346 5.56351 381.093 5.56351C380.841 5.56351 380.636 5.76768 380.636 6.01953C380.636 6.27139 380.841 6.47556 381.093 6.47556Z" fill="#61C2EE"/>
<path d="M466.522 34.9316C466.925 34.9316 467.253 34.6049 467.253 34.202C467.253 33.799 466.925 33.4723 466.522 33.4723C466.118 33.4723 465.791 33.799 465.791 34.202C465.791 34.6049 466.118 34.9316 466.522 34.9316Z" fill="#61C2EE"/>
<path d="M397.722 42.8674C397.873 42.8674 397.996 42.7447 397.996 42.5933C397.996 42.4419 397.873 42.3192 397.722 42.3192C397.571 42.3192 397.448 42.4419 397.448 42.5933C397.448 42.7447 397.571 42.8674 397.722 42.8674Z" fill="#61C2EE"/>
<path d="M363.277 8.39087C363.529 8.39087 363.733 8.1867 363.733 7.93485C363.733 7.68299 363.529 7.47882 363.277 7.47882C363.024 7.47882 362.82 7.68299 362.82 7.93485C362.82 8.1867 363.024 8.39087 363.277 8.39087Z" fill="#61C2EE"/>
<path d="M564.468 8.29969C564.72 8.29969 564.924 8.09552 564.924 7.84366C564.924 7.5918 564.72 7.38763 564.468 7.38763C564.215 7.38763 564.011 7.5918 564.011 7.84366C564.011 8.09552 564.215 8.29969 564.468 8.29969Z" fill="#61C2EE"/>
<path d="M544.458 69.4072C544.71 69.4072 544.915 69.203 544.915 68.9511C544.915 68.6993 544.71 68.4951 544.458 68.4951C544.206 68.4951 544.001 68.6993 544.001 68.9511C544.001 69.203 544.206 69.4072 544.458 69.4072Z" fill="#61C2EE"/>
<path d="M641.308 2.46254C641.661 2.46254 641.947 2.1767 641.947 1.82411C641.947 1.47151 641.661 1.18567 641.308 1.18567C640.954 1.18567 640.668 1.47151 640.668 1.82411C640.668 2.1767 640.954 2.46254 641.308 2.46254Z" fill="#61C2EE"/>
<path d="M648.526 14.5928C648.98 14.5928 649.348 14.2253 649.348 13.772C649.348 13.3186 648.98 12.9511 648.526 12.9511C648.071 12.9511 647.703 13.3186 647.703 13.772C647.703 14.2253 648.071 14.5928 648.526 14.5928Z" fill="#61C2EE"/>
<path d="M650.536 71.1401C650.99 71.1401 651.358 70.7726 651.358 70.3192C651.358 69.8659 650.99 69.4984 650.536 69.4984C650.081 69.4984 649.713 69.8659 649.713 70.3192C649.713 70.7726 650.081 71.1401 650.536 71.1401Z" fill="#61C2EE"/>
<path d="M599.735 22.0717C599.988 22.0717 600.192 21.8675 600.192 21.6156C600.192 21.3638 599.988 21.1596 599.735 21.1596C599.483 21.1596 599.279 21.3638 599.279 21.6156C599.279 21.8675 599.483 22.0717 599.735 22.0717Z" fill="#61C2EE"/>
<path d="M693.296 27.2704C693.649 27.2704 693.935 26.9845 693.935 26.6319C693.935 26.2793 693.649 25.9935 693.296 25.9935C692.942 25.9935 692.656 26.2793 692.656 26.6319C692.656 26.9845 692.942 27.2704 693.296 27.2704Z" fill="#61C2EE"/>
<path d="M607.776 51.5309C608.23 51.5309 608.598 51.1634 608.598 50.7101C608.598 50.2568 608.23 49.8893 607.776 49.8893C607.322 49.8893 606.953 50.2568 606.953 50.7101C606.953 51.1634 607.322 51.5309 607.776 51.5309Z" fill="#61C2EE"/>
<path d="M745.923 16.5081C746.276 16.5081 746.563 16.2223 746.563 15.8697C746.563 15.5171 746.276 15.2313 745.923 15.2313C745.57 15.2313 745.284 15.5171 745.284 15.8697C745.284 16.2223 745.57 16.5081 745.923 16.5081Z" fill="#61C2EE"/>
<path d="M767.029 9.66777C767.332 9.66777 767.577 9.42276 767.577 9.12053C767.577 8.81831 767.332 8.5733 767.029 8.5733C766.726 8.5733 766.481 8.81831 766.481 9.12053C766.481 9.42276 766.726 9.66777 767.029 9.66777Z" fill="#61C2EE"/>
<path d="M947.205 8.7557C947.609 8.7557 947.936 8.42903 947.936 8.02606C947.936 7.62309 947.609 7.29642 947.205 7.29642C946.802 7.29642 946.475 7.62309 946.475 8.02606C946.475 8.42903 946.802 8.7557 947.205 8.7557Z" fill="#61C2EE"/>
<path d="M654.464 42.8665C654.666 42.8665 654.83 42.7031 654.83 42.5016C654.83 42.3001 654.666 42.1368 654.464 42.1368C654.263 42.1368 654.099 42.3001 654.099 42.5016C654.099 42.7031 654.263 42.8665 654.464 42.8665Z" fill="#61C2EE"/>
<path d="M338.79 38.0326C338.992 38.0326 339.156 37.8693 339.156 37.6678C339.156 37.4663 338.992 37.3029 338.79 37.3029C338.588 37.3029 338.425 37.4663 338.425 37.6678C338.425 37.8693 338.588 38.0326 338.79 38.0326Z" fill="#61C2EE"/>
<path d="M311.38 26.6319C311.632 26.6319 311.837 26.4278 311.837 26.1759C311.837 25.924 311.632 25.7199 311.38 25.7199C311.128 25.7199 310.923 25.924 310.923 26.1759C310.923 26.4278 311.128 26.6319 311.38 26.6319Z" fill="#61C2EE"/>
<path d="M185.019 7.84364C185.322 7.84364 185.567 7.59863 185.567 7.29641C185.567 6.99418 185.322 6.74918 185.019 6.74918C184.716 6.74918 184.471 6.99418 184.471 7.29641C184.471 7.59863 184.716 7.84364 185.019 7.84364Z" fill="#61C2EE"/>
<path d="M269.077 20.6124C269.279 20.6124 269.442 20.4491 269.442 20.2476C269.442 20.0461 269.279 19.8828 269.077 19.8828C268.875 19.8828 268.711 20.0461 268.711 20.2476C268.711 20.4491 268.875 20.6124 269.077 20.6124Z" fill="#61C2EE"/>
<path d="M232.53 12.4042C232.58 12.4042 232.621 12.3633 232.621 12.3129C232.621 12.2624 232.58 12.2215 232.53 12.2215C232.48 12.2215 232.439 12.2624 232.439 12.3129C232.439 12.3633 232.48 12.4042 232.53 12.4042Z" fill="#61C2EE"/>
<path d="M286.071 41.8632C286.424 41.8632 286.711 41.5774 286.711 41.2248C286.711 40.8722 286.424 40.5863 286.071 40.5863C285.718 40.5863 285.432 40.8722 285.432 41.2248C285.432 41.5774 285.718 41.8632 286.071 41.8632Z" fill="#61C2EE"/>
<path d="M312.659 48.886C312.962 48.886 313.207 48.641 313.207 48.3388C313.207 48.0365 312.962 47.7915 312.659 47.7915C312.356 47.7915 312.111 48.0365 312.111 48.3388C312.111 48.641 312.356 48.886 312.659 48.886Z" fill="#61C2EE"/>
<path d="M218.916 27.1792C219.269 27.1792 219.556 26.8933 219.556 26.5407C219.556 26.1881 219.269 25.9023 218.916 25.9023C218.563 25.9023 218.277 26.1881 218.277 26.5407C218.277 26.8933 218.563 27.1792 218.916 27.1792Z" fill="#61C2EE"/>
<path d="M512.114 15.5049C512.467 15.5049 512.754 15.2191 512.754 14.8665C512.754 14.5139 512.467 14.228 512.114 14.228C511.761 14.228 511.474 14.5139 511.474 14.8665C511.474 15.2191 511.761 15.5049 512.114 15.5049Z" fill="#61C2EE"/>
<path d="M488.633 44.417C488.834 44.417 488.998 44.2536 488.998 44.0521C488.998 43.8506 488.834 43.6873 488.633 43.6873C488.431 43.6873 488.267 43.8506 488.267 44.0521C488.267 44.2536 488.431 44.417 488.633 44.417Z" fill="#61C2EE"/>
<path d="M552.59 41.1335C553.448 41.1335 554.143 40.4394 554.143 39.5831C554.143 38.7267 553.448 38.0326 552.59 38.0326C551.732 38.0326 551.037 38.7267 551.037 39.5831C551.037 40.4394 551.732 41.1335 552.59 41.1335Z" fill="#61C2EE"/>
<path d="M570.589 31.9218C571.043 31.9218 571.411 31.5543 571.411 31.101C571.411 30.6476 571.043 30.2801 570.589 30.2801C570.135 30.2801 569.767 30.6476 569.767 31.101C569.767 31.5543 570.135 31.9218 570.589 31.9218Z" fill="#61C2EE"/>
<path d="M731.578 46.1498C731.831 46.1498 732.035 45.9457 732.035 45.6938C732.035 45.442 731.831 45.2378 731.578 45.2378C731.326 45.2378 731.122 45.442 731.122 45.6938C731.122 45.9457 731.326 46.1498 731.578 46.1498Z" fill="#61C2EE"/>
<path d="M774.704 46.1498C775.208 46.1498 775.618 45.7415 775.618 45.2378C775.618 44.7341 775.208 44.3257 774.704 44.3257C774.199 44.3257 773.79 44.7341 773.79 45.2378C773.79 45.7415 774.199 46.1498 774.704 46.1498Z" fill="#61C2EE"/>
<path d="M798.185 18.8795C798.538 18.8795 798.825 18.5936 798.825 18.241C798.825 17.8884 798.538 17.6026 798.185 17.6026C797.832 17.6026 797.546 17.8884 797.546 18.241C797.546 18.5936 797.832 18.8795 798.185 18.8795Z" fill="#61C2EE"/>
<path d="M848.711 19.7003C849.065 19.7003 849.351 19.4145 849.351 19.0619C849.351 18.7093 849.065 18.4235 848.711 18.4235C848.358 18.4235 848.072 18.7093 848.072 19.0619C848.072 19.4145 848.358 19.7003 848.711 19.7003Z" fill="#61C2EE"/>
<path d="M852.183 53.8111C852.486 53.8111 852.732 53.5661 852.732 53.2638C852.732 52.9616 852.486 52.7166 852.183 52.7166C851.881 52.7166 851.635 52.9616 851.635 53.2638C851.635 53.5661 851.881 53.8111 852.183 53.8111Z" fill="#61C2EE"/>
<path d="M924.181 47.0619C924.534 47.0619 924.82 46.7761 924.82 46.4235C924.82 46.0709 924.534 45.785 924.181 45.785C923.828 45.785 923.541 46.0709 923.541 46.4235C923.541 46.7761 923.828 47.0619 924.181 47.0619Z" fill="#61C2EE"/>
<path d="M486.074 69.772C486.529 69.772 486.897 69.4045 486.897 68.9511C486.897 68.4978 486.529 68.1303 486.074 68.1303C485.62 68.1303 485.252 68.4978 485.252 68.9511C485.252 69.4045 485.62 69.772 486.074 69.772Z" fill="#61C2EE"/>
<path d="M511.292 46.2411C511.695 46.2411 512.023 45.9144 512.023 45.5114C512.023 45.1084 511.695 44.7818 511.292 44.7818C510.888 44.7818 510.561 45.1084 510.561 45.5114C510.561 45.9144 510.888 46.2411 511.292 46.2411Z" fill="#61C2EE"/>
<path d="M759.597 37.1897C763.434 36.1864 817.62 72.581 822.097 74.5877C826.574 76.6856 829.498 66.7432 832.057 66.3784C834.615 65.9223 843.844 71.76 845.397 74.2228C846.859 76.6856 847.225 88.1787 848.321 89.4557C849.418 90.7327 867.51 66.3784 870.16 66.0135C872.718 65.5574 880.485 73.4019 881.947 75.8647C883.409 78.3275 884.14 89.4557 884.14 91.9185C884.14 94.3812 900.496 82.4321 904.882 80.3342C909.36 78.2363 919.685 81.1551 923.34 81.6112C926.995 82.0673 953.311 58.1691 957.697 58.1691C962.174 58.1691 978.804 79.9693 979.901 82.0673C980.997 84.1652 979.535 89.4557 978.804 91.0975C978.073 92.7394 980.266 93.5603 981.728 92.7394C983.19 91.9185 993.516 73.858 996.896 73.858C1000.28 73.858 1022.02 84.1652 1023.12 84.9861C1024.22 85.8071 1028.6 96.1143 1029.79 98.121C1030.61 99.5805 1035.46 89.8205 1036.28 88.3611C1037.1 86.9017 1063.51 82.4321 1065.34 82.1585C1067.16 81.8849 1072.28 86.3544 1073.83 87.1753C1075.39 87.9962 1115.23 76.5032 1117.05 76.2296C1118.88 75.9559 1123.72 79.2396 1123.72 79.2396C1123.72 79.2396 1149.31 81.8849 1150.95 81.8849C1152.6 81.8849 1160 92.0097 1160 92.0097V252H0V69.8445C0 69.8445 13.8889 62.4562 15.9905 62.0913C18.0922 61.7264 23.7574 64.1892 25.3108 65.6487C26.8641 67.1081 43.7684 55.0678 47.5148 57.0745C51.2611 59.0812 77.7598 66.5608 78.8562 68.3851C79.9527 70.2094 96.2174 61.2704 98.5931 61.544C100.969 61.8176 118.33 71.304 123.173 73.1283C128.016 74.9525 139.438 66.0135 140.808 65.7399C142.179 65.4662 139.438 54.4293 140.534 52.3313C141.631 50.2334 156.25 38.6491 157.621 38.1019C158.992 37.4634 179.734 47.0409 181.927 48.5003C184.12 49.9598 193.897 64.8277 194.719 66.0135C196.09 67.8378 219.756 58.8988 222.497 57.713C225.238 56.5272 276.682 63.9156 278.236 64.2804C279.789 64.6453 285.728 60.0846 287.007 58.8988C288.378 57.713 289.657 49.4125 289.931 47.3145C290.206 45.2166 308.298 34.2708 310.765 33.0851C313.141 31.8993 327.852 43.4835 330.502 44.6693C333.152 45.8551 345.213 53.6083 346.492 54.7941C347.863 55.9799 353.254 51.1455 355.538 50.5983C358.645 49.8685 372.534 61.3616 373.174 60.3582C375.915 55.6151 387.063 35.0918 389.438 34.1796C391.814 33.2675 421.968 39.8349 425.44 40.3822C428.912 40.9295 436.679 77.3241 436.679 77.3241C436.679 77.3241 713.909 77.3241 720.123 77.3241C727.524 61.9089 753.931 38.6491 759.597 37.1897Z" fill="#00043D"/>
<path d="M844.783 69.5896C844.691 69.4984 844.6 69.4072 844.417 69.2248C844.326 69.1335 844.234 69.1335 844.143 69.0423C844.052 68.9511 843.869 68.8599 843.778 68.7687C843.686 68.6775 843.595 68.5863 843.504 68.4951C843.412 68.4039 843.229 68.3127 843.047 68.2215C842.955 68.1303 842.773 68.0391 842.681 67.9479C842.498 67.8567 842.407 67.7655 842.224 67.6743C842.042 67.5831 841.95 67.4919 841.768 67.4006C841.585 67.3094 841.493 67.2182 841.311 67.127C841.128 67.0358 840.945 66.9446 840.854 66.8534C840.762 66.7622 840.58 66.671 840.488 66.671C840.306 66.5798 840.123 66.3974 839.849 66.3062C839.849 66.3062 839.849 66.3062 839.757 66.3062C838.57 65.5765 837.29 64.9381 836.103 64.4821C836.103 64.4821 836.103 64.4821 836.011 64.4821C835.737 64.3909 835.463 64.2085 835.189 64.1173H835.098C834.824 64.0261 834.549 63.9348 834.367 63.8436H834.275C834.001 63.7524 833.819 63.6612 833.544 63.6612C833.544 63.6612 833.544 63.6612 833.453 63.6612C833.179 63.57 832.996 63.57 832.813 63.4788C832.722 63.9348 832.631 64.3909 832.539 64.5733C831.808 65.5765 839.94 94.8534 840.123 96.5863C840.306 98.3192 842.955 96.4951 843.504 94.671C844.052 92.8469 843.047 88.2867 843.869 87.8306C844.509 87.4658 846.427 80.9902 846.336 75.9739C846.336 74.4235 845.514 71.5049 845.239 70.8664C845.148 70.7752 845.148 70.5928 845.057 70.5016C844.965 70.4104 844.874 70.228 844.691 70.0456C844.965 69.6808 844.874 69.6808 844.783 69.5896Z" fill="url(#paint1_linear)"/>
<path d="M317.867 57.2769C319.42 57.3681 336.597 56.456 337.511 56.456C338.425 56.456 339.612 58.645 340.069 59.2834C340.526 59.9218 341.348 58.645 342.262 57.5505C342.81 56.9121 344.729 54.5407 346.282 52.6254C344.455 51.3485 333.034 44.6906 330.384 43.6873C327.735 42.5928 313.025 32.1954 310.649 33.2899C312.02 36.2085 316.314 57.1857 317.867 57.2769Z" fill="#09608E"/>
<path d="M760.451 39.2183C753.781 39.5831 731.761 57.0945 720.158 72.9642C717.051 77.2508 778.45 103.427 787.587 101.603C789.962 101.055 767.851 38.7622 760.451 39.2183Z" fill="url(#paint2_linear)"/>
<path d="M388.768 36.9381C387.215 36.9381 370.038 65.9414 370.038 68.7687C370.129 73.8762 393.428 86.7362 395.712 86.3713C397.996 85.9153 412.25 60.2866 413.255 58.9186C414.26 57.5505 395.347 36.8469 388.768 36.9381Z" fill="#18205E"/>
<path d="M792.886 110.267C793.708 108.899 774.064 103.244 756.43 95.4919C739.984 88.3779 725.366 79.0749 723.355 80.2606C719.061 82.5407 718.878 107.805 723.904 109.902C728.837 112.091 791.972 111.909 792.886 110.267Z" fill="#18205E"/>
<path d="M393.611 35.2964C394.342 34.202 424.493 39.9479 425.315 41.1336C426.137 42.3192 437.741 74.1498 437.01 74.9707C436.279 75.7915 392.788 36.4821 393.611 35.2964Z" fill="#064577"/>
<path d="M394.616 35.6612C391.509 35.4788 412.615 51.531 414.442 51.0749C416.27 50.6189 425.132 42.0456 425.224 41.2248C425.315 40.3127 396.169 35.7524 394.616 35.6612Z" fill="#10709B"/>
<path d="M355.054 50.0716C355.054 50.0716 355.693 59.6482 357.338 60.1954C358.982 60.6514 371.5 58.0977 370.769 57.4593C369.307 56.1824 357.429 49.342 355.054 50.0716Z" fill="#09608E"/>
<path d="M734.137 65.9414C731.03 73.329 745.649 92.6645 759.263 78.7101C772.968 64.7557 737.335 58.5537 734.137 65.9414Z" fill="#09608E"/>
<path d="M764.653 81.5375C759.446 80.8078 755.791 91.0228 765.019 90.8404C774.247 90.658 771.78 82.5407 764.653 81.5375Z" fill="#09608E"/>
<path d="M827.788 116.834C830.438 115.466 824.225 82.1759 821.393 70.228C815.088 67.0358 777.993 44.873 764.379 38.5798C769.861 48.0651 783.384 74.0586 790.967 99.5961C791.515 101.511 824.59 118.476 827.788 116.834Z" fill="#09608E"/>
<path d="M416.361 60.6515C414.808 60.7427 400.006 89.2899 401.285 89.9283C402.565 90.5668 434.817 79.5309 435.548 78.5277C436.188 77.5244 417.823 60.5603 416.361 60.6515Z" fill="#18205E"/>
<path d="M389.225 35.3876C389.59 35.2964 390.139 35.3876 390.504 35.4788C391.509 35.57 392.514 35.7524 393.519 35.8436C396.626 36.2997 399.732 36.7557 402.747 37.3029C406.311 37.8502 409.783 38.4886 413.346 39.0358C414.899 39.3094 416.452 39.5831 418.097 39.8567C419.742 40.1303 421.66 40.5863 421.843 42.5928C421.843 42.7752 421.843 43.0489 421.843 43.2313C421.66 44.2345 420.747 45.0554 420.473 45.9674C420.473 46.0586 420.381 46.1498 420.473 46.241C420.564 46.4234 420.838 46.3322 421.021 46.1498C421.843 45.4202 422.665 44.7818 423.396 43.9609C423.853 43.4137 424.401 42.684 425.132 42.7752C425.224 42.7752 425.406 42.8664 425.498 42.8664C425.589 42.9576 425.681 43.0489 425.681 43.2313C426.046 43.9609 426.594 44.5081 426.96 45.1466C427.234 45.785 427.508 46.5147 427.691 47.1531C428.33 48.7036 428.878 50.1629 429.427 51.7133C430.249 53.9023 430.98 56.0912 431.802 58.1889C432.716 60.6515 435.822 72.5081 436.645 72.7818C436.645 72.7818 428.878 40.3127 425.406 39.7655C421.935 39.2182 391.783 33.3811 389.408 34.2019C388.037 34.658 383.743 40.9511 379.906 46.9707C383.103 42.7752 388.403 35.6612 389.225 35.3876Z" fill="#02B8EB"/>
<path d="M397.539 74.0586C395.529 74.241 391.783 79.987 394.342 80.3518C396.9 80.7166 401.56 73.785 397.539 74.0586Z" fill="#18205E"/>
<path d="M388.403 80.7166C387.763 82.2671 391.875 83.544 391.418 80.443C390.961 77.342 388.951 79.3486 388.403 80.7166Z" fill="#18205E"/>
<path d="M371.134 57.0033C367.023 54.7231 357.977 48.43 355.51 48.9772C354.962 49.0684 354.323 49.4332 353.592 49.7981C353.592 49.7981 353.592 49.7981 353.5 49.7981C352.404 50.3453 351.125 51.1661 349.937 51.7134H349.846C349.663 51.8046 349.48 51.8958 349.297 51.987C349.297 51.987 349.206 51.987 349.206 52.0782C349.023 52.1694 348.841 52.2606 348.658 52.3518C348.475 52.443 348.292 52.5342 348.11 52.5342H348.018C347.927 52.5342 347.744 52.6254 347.653 52.6254C347.561 52.6254 347.561 52.6254 347.47 52.6254C347.379 52.6254 347.287 52.6254 347.196 52.6254C347.105 52.6254 347.105 52.6254 347.013 52.6254C346.922 52.6254 346.83 52.6254 346.739 52.6254H346.648C346.556 52.6254 346.465 52.5342 346.374 52.5342C345.003 51.4397 333.034 44.5082 330.384 43.5049C327.735 42.4104 313.025 32.013 310.649 33.1075C308.913 33.8371 298.954 39.2182 293.472 42.8665C294.203 42.684 294.934 42.3192 295.665 42.0456C299.411 40.6775 302.883 38.671 306.537 37.1205C307.451 36.7557 308.456 36.3909 309.461 36.0261C309.918 35.8437 310.375 35.6612 310.74 35.9349C311.289 36.2997 311.563 37.0293 311.837 37.5766C312.202 38.5798 312.568 39.4919 313.025 40.4951C313.116 40.6775 313.207 40.8599 313.39 40.7687C313.481 40.7687 313.573 40.5863 313.573 40.4039C313.755 39.3095 313.481 38.1238 313.755 37.0293C313.755 36.9381 313.847 36.8469 313.847 36.8469C313.938 36.8469 314.03 36.8469 314.121 36.8469C315.948 37.0293 317.776 38.3062 319.329 39.127C321.248 40.1303 323.075 41.1336 324.994 42.1368C329.014 44.3257 333.125 46.4235 337.237 48.6124C340.161 50.1629 343.176 51.8046 346.191 53.0814C346.556 53.2639 347.013 53.4463 347.379 53.5375C347.379 53.5375 348.566 52.9902 350.12 52.443C352.495 51.6222 355.236 50.3453 356.607 50.4365C358.891 50.6189 366.109 54.8143 371.134 57.0033Z" fill="#02B8EB"/>
<path d="M353.957 52.6254C353.774 51.8046 346.922 54.6319 346.374 55.0879C345.825 55.544 343.633 68.9511 343.998 69.0423C344.364 69.1335 355.328 61.3811 355.51 60.8339C355.602 60.2866 354.049 53.2638 353.957 52.6254Z" fill="#18205E"/>
<path d="M310.558 37.6678C306.903 39.127 293.472 44.1433 291.462 46.1498C289.452 48.1564 284.061 73.6026 286.254 76.1564C288.447 78.7101 304.253 96.4951 305.35 97.1336C306.446 97.772 313.39 60.4691 314.304 59.1922C315.309 58.0065 310.558 37.6678 310.558 37.6678Z" fill="#18205E"/>
<path d="M759.537 36.9381C753.872 38.3062 727.467 59.101 719.975 72.9642C719.975 72.9642 722.99 68.3127 736.421 56.1824C741.263 51.8046 746.289 47.7003 751.771 44.2345C753.507 43.1401 755.334 42.1368 757.253 41.2248C758.075 40.8599 759.08 40.1303 759.902 40.1303C761.364 40.1303 762.735 41.8632 763.466 42.9577C765.75 46.0586 767.943 49.1596 769.861 52.5342C771.141 54.8143 772.328 57.2769 774.247 59.1922C774.43 59.3746 774.612 59.4658 774.795 59.557C775.161 59.6482 775.526 59.2834 775.618 58.8274C775.709 58.4625 775.526 58.0065 775.343 57.6417C774.247 54.8143 773.425 51.8958 772.877 48.886C772.785 48.43 772.694 47.9739 772.877 47.5179C773.151 46.8795 773.79 46.6059 774.521 46.6059C776.166 46.6059 777.902 48.0651 779.272 48.7948C780.825 49.6156 782.379 50.4365 783.932 51.3485C787.221 53.0814 790.51 54.9055 793.8 56.6384C799.83 59.8306 805.951 63.114 812.073 66.215C815.271 67.8567 818.56 69.2248 821.849 70.5928C817.555 68.6775 763.466 36.1173 759.537 36.9381Z" fill="#02B8EB"/>
<path d="M870.091 62.8404C867.259 64.3909 853.828 82.8143 852.275 87.101C851.178 90.0195 856.021 169.277 857.483 177.303C858.945 185.329 862.691 112.912 863.513 109.173C864.335 105.433 865.523 120.3 866.071 122.945C866.62 125.498 870.366 114.371 871.827 111.453C873.289 108.625 872.376 82.5407 872.65 79.3485C872.924 76.1564 870.091 62.8404 870.091 62.8404Z" fill="#18205E"/>
<path d="M803.393 113.915C800.287 112.912 767.029 114.645 767.577 115.466C767.76 115.739 777.719 128.691 779.82 126.593C781.922 124.495 785.851 161.616 786.764 161.616C788.318 161.616 792.795 141.642 793.708 140.182C794.622 138.632 797.272 188.795 798.003 187.792C798.734 186.879 818.195 131.518 818.743 126.958C819.474 122.397 803.941 114.098 803.393 113.915Z" fill="#18205E"/>
<path d="M350.942 87.7394C349.937 88.1955 359.987 111.179 362.454 111.726C364.921 112.274 384.931 110.358 386.21 109.811C387.032 109.446 364.647 91.7525 363.094 91.3876C361.541 91.114 351.673 87.4658 350.942 87.7394Z" fill="#064577"/>
<path d="M386.301 109.811C386.301 107.805 362.728 109.811 362.272 111.27C361.815 112.73 364.008 145.472 364.282 146.384C364.556 147.388 367.297 138.997 367.48 137.993C367.662 136.99 372.687 190.984 373.693 189.251C374.698 187.518 378.444 130.059 379.175 128.599C379.906 127.14 381.185 133.342 381.641 134.072C382.098 134.801 386.301 110.997 386.301 109.811Z" fill="#18205E"/>
<path d="M348.658 102.971C349.754 102.515 355.328 111.453 355.145 112.091C354.962 112.73 344.272 115.283 344.546 113.733C344.912 112.182 345.095 105.251 345.095 105.251C345.095 105.251 347.744 103.244 348.658 102.971Z" fill="#064577"/>
<path d="M355.145 112.091C355.236 113.186 353.043 129.511 353.043 131.244C353.043 132.886 349.389 122.033 349.023 121.029C348.658 120.026 346.556 119.388 346.008 119.57C345.46 119.752 344.089 114.463 344.546 113.824C345.003 113.094 355.145 112.091 355.145 112.091Z" fill="#18205E"/>
<path d="M230.885 69.6808C231.708 69.4072 235.728 67.127 236.824 66.3062C237.921 65.4853 245.047 94.215 245.047 94.215C245.047 94.215 254.458 90.4756 255.28 90.202C256.103 89.9283 259.849 140.547 261.219 139.726C262.681 138.906 265.788 100.235 266.61 98.228C267.432 96.2215 269.991 102.788 270.356 103.609C270.63 104.43 276.021 82.8143 277.209 79.7134C278.305 76.6124 280.041 61.8371 279.767 60.9251C279.767 60.8339 279.584 60.7427 279.31 60.6515C278.396 61.1075 277.574 61.3811 277.117 61.2899C275.655 61.0163 231.616 55.3616 222.754 55.2704C222.205 57.9153 222.114 60.7427 222.114 60.9251C222.571 61.7459 229.972 69.9544 230.885 69.6808Z" fill="#18205E"/>
<path d="M263.96 70.684C263.96 74.4235 267.158 76.2476 270.447 76.2476C273.737 76.2476 275.838 74.4235 275.838 70.684C275.838 66.9446 271.909 63.8437 268.62 63.8437C265.331 63.9349 263.96 66.9446 263.96 70.684Z" fill="#064577"/>
<path d="M273.828 77.9805C267.158 81.5375 268.62 84.1824 271.635 83.8176C274.65 83.4528 276.021 76.886 273.828 77.9805Z" fill="#064577"/>
<path d="M329.562 71.9609C329.105 72.1433 331.664 81.0814 332.486 81.0814C333.308 81.0814 338.059 78.8013 338.516 78.3453C338.973 77.8893 337.328 73.5114 336.78 72.9642C336.141 72.3257 330.202 71.5961 329.562 71.9609Z" fill="#18205E"/>
<path d="M201.739 62.1107C205.485 61.9283 223.485 56.6384 224.033 56.8208C226.043 57.4593 228.601 57.2769 230.703 57.5505C232.987 57.8241 235.271 58.0065 237.555 58.2801C238.834 58.3713 240.205 58.5537 241.484 58.6449C242.398 58.7361 243.403 58.6449 244.134 59.3746C244.682 60.013 244.956 60.7427 245.23 61.5635C245.413 62.2019 245.596 62.8404 245.778 63.3876C245.87 63.7524 246.235 64.2997 246.601 64.1173C246.692 64.1173 246.783 64.0261 246.875 63.9348C247.606 63.2052 248.245 62.3844 248.976 61.6547C249.25 61.3811 249.524 61.0163 249.89 60.8339C250.255 60.6515 250.712 60.6515 251.078 60.6515C251.626 60.6515 252.083 60.6515 252.631 60.7427C253.453 61.0163 253.453 61.4723 254.275 61.1987C255.006 60.9251 255.737 60.5602 256.56 60.3778C257.839 60.1042 258.752 60.3778 259.94 60.469C262.59 60.7427 265.24 61.0163 267.889 61.2899C270.722 61.5635 273.554 61.7459 276.295 62.2019C278.488 62.5668 280.955 60.9251 280.955 60.9251C281.046 60.8339 281.137 60.6515 281.137 60.2866C279.95 60.9251 278.853 61.2899 278.305 61.1987C276.66 60.9251 225.221 54.2671 222.571 55.3616C220.744 56.0912 208.683 60.1954 201.1 62.1107C201.191 62.1107 201.465 62.1107 201.739 62.1107Z" fill="#02B8EB"/>
<path d="M416.909 52.443C416.452 54.1759 419.376 58.6449 422.026 56.8208C424.676 54.9967 421.752 49.6156 420.199 49.5244C418.645 49.4332 417.092 51.5309 416.909 52.443Z" fill="#10709B"/>
<path d="M421.935 47.1531C421.204 47.7915 422.3 50.8013 423.945 51.4398C425.498 52.0782 426.686 46.9707 425.589 46.3323C424.493 45.6938 422.94 46.2411 421.935 47.1531Z" fill="#10709B"/>
<path d="M825.413 70.0456C825.596 70.0456 825.778 70.0456 825.961 70.0456C827.697 69.4072 831.717 65.6677 832.631 65.3941C833.636 65.2117 843.869 69.772 844.509 70.5928C845.148 71.3225 845.879 72.9642 846.245 73.6026C846.245 73.6026 846.245 73.6938 846.336 73.6026C846.062 72.0521 845.696 70.7752 845.331 70.228C843.869 68.0391 834.641 62.8404 831.991 63.2052C830.164 63.4788 828.062 68.1303 825.413 70.0456Z" fill="#02B8EB"/>
<path d="M850.173 82.6319C850.539 82.4495 854.102 78.9837 854.559 78.7101C856.752 77.1596 858.762 75.1531 860.772 73.329C862.142 72.1433 863.513 70.8665 864.883 69.5896C865.614 68.9512 866.254 68.1303 867.076 67.5831C868.081 66.8534 868.63 66.7622 869.543 67.4919C869.726 67.5831 869.909 67.7655 870.091 67.7655C870.274 67.7655 870.457 67.5831 870.548 67.3095C870.914 66.215 871.005 65.9414 872.284 66.215C873.563 66.4886 874.751 67.1271 875.848 67.7655C877.127 68.4039 878.406 69.2248 879.685 69.9544C880.325 70.4104 881.421 70.8665 881.878 71.5961C880.416 69.4072 872.65 62.3844 870.091 62.7492C868.264 63.0228 856.112 75.8828 850.173 82.6319Z" fill="#02B8EB"/>
<path d="M911.755 105.342C912.577 104.886 924.546 77.9805 924.729 76.886C924.729 76.7948 924.638 76.7036 924.455 76.6124C923.907 76.7948 923.541 76.886 923.267 76.886C919.795 76.5212 910.659 74.3322 905.816 75.4267C905.907 82.6319 911.024 105.707 911.755 105.342Z" fill="url(#paint3_linear)"/>
<path d="M904.171 78.8013C904.171 76.2476 882.974 91.9348 883.431 92.5733C883.888 93.2117 893.847 118.932 894.486 118.749C895.126 118.567 898.05 103.244 898.05 103.244C898.05 103.244 903.075 103.883 903.532 103.7C903.989 103.518 904.171 79.4397 904.171 78.8013Z" fill="#18205E"/>
<path d="M920.435 77.342C923.633 77.6157 923.176 77.0684 924.455 76.5212C923.907 76.7036 923.541 76.7948 923.267 76.7948C919.613 76.43 909.197 73.8762 904.811 75.7003C902.07 76.7948 894.943 81.2639 889.827 84.0912C891.106 83.544 893.025 82.7231 894.395 82.3583C896.497 81.8111 905.542 76.886 907.187 76.5212C908.831 76.1564 917.328 77.0684 920.435 77.342Z" fill="#02B8EB"/>
<path d="M181.912 48.7036C181.182 49.1596 180.451 56.0912 179.354 62.8404C178.166 70.0456 176.522 76.9772 177.344 76.886C178.897 76.7036 193.242 72.5082 193.607 71.0489C193.973 69.5896 194.521 65.759 194.612 65.0293C194.704 64.2997 183.283 47.8828 181.912 48.7036Z" fill="#064577"/>
<path d="M157.609 38.215C156.421 38.8534 169.03 76.3388 169.852 76.3388C170.674 76.3388 175.608 74.5147 176.156 73.8762C176.704 73.2378 180.999 47.8828 180.633 47.4267C180.268 46.9707 158.888 37.4854 157.609 38.215Z" fill="#18205E"/>
<path d="M956.89 57.7329C952.87 59.0098 924.912 76.6124 927.013 77.4332C929.206 78.2541 946.749 95.127 947.936 93.8502C949.124 92.3909 958.078 57.3681 956.89 57.7329Z" fill="url(#paint4_linear)"/>
<path d="M959.631 57.5505C957.804 58.0065 948.485 96.4951 949.672 96.4951C950.86 96.4951 963.926 113.277 965.113 112.912C966.301 112.547 976.991 89.1075 977.631 87.7394C978.179 86.3713 979.915 77.1596 979.824 77.1596C979.732 77.1596 961.185 57.0945 959.631 57.5505Z" fill="#18205E"/>
<path d="M936.333 71.8697C933.409 73.9675 931.399 77.9805 934.871 80.7166C938.343 83.4528 941.998 81.6287 942.637 77.0684C943.277 72.5082 942.089 67.8567 936.333 71.8697Z" fill="#18205E"/>
<path d="M942.911 82.4495C939.987 84.0912 942.272 88.8339 944.83 89.6547C947.388 90.4756 948.393 79.3485 942.911 82.4495Z" fill="#18205E"/>
<path d="M725.091 93.6678C721.985 98.228 723.264 108.443 733.132 108.99C742.999 109.537 747.933 109.537 740.167 101.238C732.401 92.9381 727.376 90.3844 725.091 93.6678Z" fill="#00043D"/>
<path d="M436 252H719.917C719.917 252 719.917 105.29 719.917 87.7833C719.917 81.1271 721.012 69 715.259 69C709.506 69 442.118 69 438.74 69C436.913 69 436 70.1853 436 74.1061C436 79.577 436 252 436 252Z" fill="#02B8EB"/>
<path d="M677.124 69.4984C677.398 67.2182 670.728 60.7427 669.175 60.6515C667.53 60.6515 655.835 66.9446 652.911 66.9446C649.987 66.9446 644.049 62.1107 641.856 62.8404C639.663 63.57 631.531 67.4918 630.892 69.0423C630.252 70.5928 650.079 236.404 652.911 235.765C655.744 235.127 677.124 69.4984 677.124 69.4984Z" fill="#00043D"/>
<path d="M567.665 77.9805L571.32 207.036C571.32 207.036 560.539 77.798 561.452 76.2476C562.001 75.3355 566.843 71.8697 570.681 68.9511C549.94 68.9511 547.199 68.9511 528.652 68.9511C538.976 72.5993 550.032 76.6124 552.59 77.7981C552.59 77.7981 559.899 156.143 561.27 155.231C562.64 154.41 567.665 77.9805 567.665 77.9805Z" fill="#72D1F2"/>
<path d="M462.41 81.9935C463.324 80.6254 468.44 253.824 468.44 252C468.44 250.176 474.928 72.2345 474.928 72.2345L483.059 69.0424C466.522 69.0424 453.091 69.0424 445.599 69.0424C448.796 71.3225 453.73 74.8795 454.096 75.7003C454.644 76.9772 456.928 165.994 457.202 165.811C457.476 165.537 461.497 83.3616 462.41 81.9935Z" fill="#72D1F2"/>
<path d="M669.175 84.5472C669.357 84.7296 674.748 74.9707 677.124 70.0456C677.124 69.6808 677.215 69.4072 677.215 69.4072C677.489 67.6743 673.56 63.3876 671.002 61.5635C669.906 61.0163 669.175 60.6515 669.175 60.6515C667.164 61.2899 668.992 84.3648 669.175 84.5472Z" fill="#09608E"/>
<path d="M646.15 103.153C647.612 102.241 653.094 88.1042 653.368 86.2801C653.642 84.456 654.008 69.5896 652.911 67.0358C650.261 67.0358 645.145 63.0228 642.587 62.8404C641.947 70.5928 644.871 103.883 646.15 103.153Z" fill="url(#paint5_linear)"/>
<path d="M500.693 95.8567C501.059 94.0326 498.592 187.609 498.409 188.612C498.226 189.616 496.947 131.883 496.764 127.87C496.582 123.857 500.236 97.8632 500.693 95.8567Z" fill="#72D1F2"/>
<path d="M482.968 68.9511C482.968 68.9511 490.825 63.3876 492.653 63.57C494.48 63.7524 499.414 68.9511 499.414 68.9511C499.414 68.9511 492.013 149.577 491.191 150.033C490.369 150.489 482.054 70.8665 482.968 68.9511Z" fill="#00043D"/>
<path d="M492.744 63.57C492.653 63.57 492.561 63.57 492.47 63.57C491.922 67.4007 491.008 77.2508 491.191 77.6156C491.465 78.0717 495.668 84.1824 495.851 83.8176C496.033 83.6352 498.409 73.9674 499.414 69.5896C499.414 69.1336 499.505 68.8599 499.505 68.8599C499.505 68.8599 494.571 63.8437 492.744 63.57Z" fill="#09608E"/>
<path d="M715.315 68.9511C713.945 68.9511 700.605 68.9511 681.052 68.9511L691.468 76.1564C691.468 76.1564 696.95 157.42 697.773 155.687C698.595 153.954 704.625 78.8925 704.625 78.8925C704.625 78.8925 711.478 229.199 711.66 227.831C711.752 226.463 715.406 84.5472 715.406 84.5472C715.406 84.5472 717.873 79.1661 719.792 75.0619C719.244 71.5961 718.056 68.9511 715.315 68.9511Z" fill="#72D1F2"/>
<path d="M669.175 60.6515C667.53 60.6515 655.835 66.9446 652.911 66.9446C649.987 66.9446 644.049 62.1107 641.856 62.8404C640.485 63.2052 637.013 64.8469 634.272 66.3974C635.917 66.1238 637.47 65.5765 638.932 65.0293C639.937 64.6645 641.764 63.8436 642.221 65.3941C642.313 65.5765 642.313 65.8502 642.313 66.1238C642.313 66.671 642.404 67.2182 642.587 67.7655C642.587 67.9479 642.678 68.0391 642.861 68.0391C642.952 68.0391 643.044 67.9479 643.135 67.8567C643.318 67.4918 643.409 67.127 643.5 66.7622C643.592 66.3974 643.592 65.9414 643.774 65.6677C644.505 64.2997 647.521 66.215 648.617 66.5798C650.079 67.127 651.541 67.7655 653.094 68.1303C655.195 68.4951 668.535 62.7492 669.083 62.8404C669.631 62.8404 675.844 66.671 677.215 69.5896C677.489 67.3094 670.819 60.7427 669.175 60.6515Z" fill="#72D1F2"/>
<path d="M482.968 68.9511C484.338 68.7687 491.374 65.6678 492.287 65.6678C493.018 65.6678 496.033 66.4886 497.678 67.2182C496.125 65.6678 493.841 63.7524 492.653 63.57C490.825 63.3876 482.968 68.9511 482.968 68.9511Z" fill="#72D1F2"/>
<path d="M574.152 91.9349C576.474 91.9349 578.355 90.0565 578.355 87.7394C578.355 85.4223 576.474 83.544 574.152 83.544C571.831 83.544 569.95 85.4223 569.95 87.7394C569.95 90.0565 571.831 91.9349 574.152 91.9349Z" fill="#72D1F2"/>
<path d="M619.288 82.4495C620.549 82.4495 621.572 81.4287 621.572 80.1694C621.572 78.9101 620.549 77.8893 619.288 77.8893C618.026 77.8893 617.004 78.9101 617.004 80.1694C617.004 81.4287 618.026 82.4495 619.288 82.4495Z" fill="#72D1F2"/>
<path d="M520.154 93.4853C522.274 93.4853 523.992 91.7703 523.992 89.6547C523.992 87.5391 522.274 85.8241 520.154 85.8241C518.035 85.8241 516.317 87.5391 516.317 89.6547C516.317 91.7703 518.035 93.4853 520.154 93.4853Z" fill="#72D1F2"/>
<path d="M541.809 127.414C544.432 127.414 546.56 125.29 546.56 122.671C546.56 120.052 544.432 117.928 541.809 117.928C539.185 117.928 537.057 120.052 537.057 122.671C537.057 125.29 539.185 127.414 541.809 127.414Z" fill="#72D1F2"/>
<path d="M694.483 230.476C696.552 230.476 698.229 228.801 698.229 226.736C698.229 224.671 696.552 222.997 694.483 222.997C692.414 222.997 690.737 224.671 690.737 226.736C690.737 228.801 692.414 230.476 694.483 230.476Z" fill="#72D1F2"/>
<path d="M691.925 190.163C693.439 190.163 694.666 188.938 694.666 187.427C694.666 185.916 693.439 184.691 691.925 184.691C690.411 184.691 689.184 185.916 689.184 187.427C689.184 188.938 690.411 190.163 691.925 190.163Z" fill="#72D1F2"/>
<path d="M597.086 192.078C598.65 192.078 599.918 190.812 599.918 189.251C599.918 187.689 598.65 186.423 597.086 186.423C595.521 186.423 594.253 187.689 594.253 189.251C594.253 190.812 595.521 192.078 597.086 192.078Z" fill="#72D1F2"/>
<path d="M469.263 81.4463C470.827 81.4463 472.095 80.1804 472.095 78.6189C472.095 77.0574 470.827 75.7915 469.263 75.7915C467.699 75.7915 466.43 77.0574 466.43 78.6189C466.43 80.1804 467.699 81.4463 469.263 81.4463Z" fill="#02B8EB"/>
<path d="M470.268 120.026C464.42 113.642 454.461 113.277 448.066 119.114C447.7 119.388 447.426 119.752 447.152 120.026L445.416 121.85C439.02 127.687 438.655 137.629 444.502 144.013C450.35 150.397 460.309 150.762 466.705 144.925L469.446 142.189C475.75 136.352 476.115 126.41 470.268 120.026Z" fill="#13B5EC" stroke="#11748E" stroke-width="2" stroke-miterlimit="10"/>
<path d="M469.354 142.28L466.613 145.016C460.217 150.853 450.258 150.489 444.411 144.104C438.563 137.72 438.929 127.779 445.324 121.941L448.066 119.205" fill="#00043D"/>
<path d="M458.664 146.384C467.343 146.384 474.379 139.361 474.379 130.697C474.379 122.033 467.343 115.01 458.664 115.01C449.985 115.01 442.949 122.033 442.949 130.697C442.949 139.361 449.985 146.384 458.664 146.384Z" fill="#19B2DB"/>
<path fill-rule="evenodd" clip-rule="evenodd" d="M457.476 127.687L458.664 123.765L461.496 126.775L457.476 127.687ZM466.065 131.792L464.42 136.99L459.121 138.176L455.832 134.619L461.131 133.433L462.776 128.235L466.065 131.792ZM451.72 130.15L455.74 129.238L454.553 133.16L451.72 130.15ZM457.659 128.782L461.679 127.87L460.491 131.792L457.659 128.782ZM459.669 132.612L455.649 133.524L456.837 129.603L459.669 132.612ZM457.568 123.401L456.106 127.961L451.446 129.055L452.817 124.495L457.568 123.401ZM449.893 129.876L458.664 139.362L465.243 137.811L467.344 131.336L458.573 121.85L451.994 123.401L449.893 129.876Z" fill="white"/>
<path opacity="0.18" d="M461.314 146.202C463.598 145.837 465.791 144.925 467.709 143.557L466.796 117.29C465.608 116.56 464.329 116.013 463.05 115.648L461.314 146.202Z" fill="#00043D"/>
<path d="M464.694 96.4951L465.06 171.739L469.902 145.472L471.181 142.736L479.13 179.218L480.044 88.2867L464.694 96.4951Z" fill="#72D1F2"/>
<path d="M464.694 96.4951L465.06 171.739L469.902 145.472L472.095 140.638L468.989 119.661L473.648 110.176L464.694 96.4951Z" fill="#72D1F2"/>
<path d="M680.687 207.218C686.626 213.512 696.585 213.785 702.889 207.857C703.255 207.583 703.529 207.218 703.803 206.945L705.539 205.121C711.843 199.192 712.117 189.251 706.178 182.958C700.24 176.665 690.28 176.391 683.976 182.319L681.326 185.056" fill="#13B5EC"/>
<path d="M680.687 207.218C686.626 213.512 696.585 213.785 702.889 207.857C703.255 207.583 703.529 207.218 703.803 206.945L705.539 205.121C711.843 199.192 712.117 189.251 706.178 182.958C700.24 176.665 690.28 176.391 683.976 182.319L681.326 185.056" stroke="#11748E" stroke-width="2" stroke-miterlimit="10"/>
<path d="M681.326 184.964L683.976 182.228C690.28 176.3 700.239 176.573 706.178 182.866C712.117 189.16 711.843 199.101 705.539 205.029L702.889 207.766" fill="#D8D8D8"/>
<path d="M692.234 212.148C700.913 212.088 707.9 205.016 707.84 196.352C707.78 187.688 700.695 180.713 692.016 180.773C683.336 180.834 676.349 187.906 676.41 196.57C676.47 205.233 683.555 212.208 692.234 212.148Z" fill="white"/>
<path d="M695.488 185.42L695.123 185.876L690.28 201.016L690.372 201.199L698.778 199.375L695.488 185.42Z" fill="#343434"/>
<path d="M695.488 185.42L684.616 194.814L690.372 201.199L692.747 193.902L695.488 185.42Z" fill="#8C8C8C"/>
<path d="M689.915 202.567L689.824 202.658L687.996 208.039L688.088 208.313L698.321 200.651L689.915 202.567Z" fill="#3C3C3B"/>
<path d="M688.088 208.313L689.915 202.567L684.25 196.091L688.088 208.313Z" fill="#8C8C8C"/>
<path d="M690.372 201.199L698.778 199.375L692.747 193.902L690.372 201.199Z" fill="#141414"/>
<path d="M684.616 194.814L690.372 201.199L692.747 193.902L684.616 194.814Z" fill="#393939"/>
<path opacity="0.18" d="M689.824 174.932L686.078 240.417L683.245 174.293L689.824 174.932Z" fill="#00043D"/>
<path d="M685.712 158.059V249.081L669.906 208.404L685.712 158.059Z" fill="#02B8EB"/>
<path d="M693.661 177.121L683.976 159.062L677.124 187.336L681.235 189.616L685.986 245.707C685.986 245.707 685.986 186.15 686.169 179.492C689.184 176.938 693.661 177.121 693.661 177.121Z" fill="#72D1F2"/>
<path d="M0 0H1162V1145H0V0Z" fill="#001F59" fill-opacity="0.5"/>

<defs>
<radialGradient id="paint0_radial" cx="0" cy="0" r="1" gradientUnits="userSpaceOnUse" gradientTransform="translate(579.989 106.783) scale(548.631 206.979)">
<stop stop-color="#32449C"/>
<stop offset="1" stop-color="#00043D"/>
</radialGradient>
<linearGradient id="paint1_linear" x1="832.728" y1="80.1131" x2="846.634" y2="80.1131" gradientUnits="userSpaceOnUse">
<stop stop-color="#0E4580"/>
<stop offset="1" stop-color="#004570"/>
</linearGradient>
<linearGradient id="paint2_linear" x1="720.078" y1="70.409" x2="787.791" y2="70.409" gradientUnits="userSpaceOnUse">
<stop stop-color="#0E4580"/>
<stop offset="1" stop-color="#004570"/>
</linearGradient>
<linearGradient id="paint3_linear" x1="905.876" y1="90.1819" x2="924.732" y2="90.1819" gradientUnits="userSpaceOnUse">
<stop stop-color="#0E4580"/>
<stop offset="1" stop-color="#004570"/>
</linearGradient>
<linearGradient id="paint4_linear" x1="926.934" y1="75.7745" x2="957.023" y2="75.7745" gradientUnits="userSpaceOnUse">
<stop stop-color="#0E4580"/>
<stop offset="1" stop-color="#004570"/>
</linearGradient>
<linearGradient id="paint5_linear" x1="642.468" y1="82.9536" x2="653.597" y2="82.9536" gradientUnits="userSpaceOnUse">
<stop stop-color="#0E4580"/>
<stop offset="1" stop-color="#004570"/>
</linearGradient>
</defs>
</svg>
