<svg width="1160" height="486" viewBox="0 0 1160 480" fill="none" xmlns="http://www.w3.org/2000/svg">
<path d="M1160 0H0V486H1160V0Z" fill="#00043D"/>
<path d="M719.975 0H435.914V486H719.975V0Z" fill="#02B8EB"/>
<path d="M539.341 20.1251C538.154 24.407 537.149 313.224 539.341 307.229C541.534 301.234 541.169 83.4978 541.9 78.1454C542.813 72.5788 539.341 20.1251 539.341 20.1251Z" fill="#72D1F2"/>
<path d="M602.385 20.1251V458.596L613.532 204.034L619.105 283.893L620.75 86.4952L610.699 156.505L602.385 20.1251Z" fill="#72D1F2"/>
<path d="M672.555 207.246L669.449 399.077L664.515 163.57L668.535 218.165L672.555 207.246Z" fill="#72D1F2"/>
<path d="M471.912 221.162L478.308 459.666L480.135 111.544L471.912 221.162Z" fill="#72D1F2"/>
<path d="M471.912 221.162L468.623 163.57L468.258 367.819L475.476 232.723L471.912 221.162Z" fill="#72D1F2"/>
</svg>
