<svg width="44" height="44" viewBox="0 0 44 44" fill="none" xmlns="http://www.w3.org/2000/svg">
<path d="M22 43.5C33.8741 43.5 43.5 33.8741 43.5 22C43.5 10.1259 33.8741 0.5 22 0.5C10.1259 0.5 0.5 10.1259 0.5 22C0.5 33.8741 10.1259 43.5 22 43.5Z" fill="#13B5EC" stroke="#0B5079"/>
<path fill-rule="evenodd" clip-rule="evenodd" d="M23.575 17.9312L28.3 15.175V20.6875L23.575 17.9312ZM28.3 29.7437L22 33.4187L15.7 29.7437V23.3125L22 26.9875L28.3 23.3125V29.7437ZM15.7 15.175L20.425 17.9312L15.7 20.6875V15.175ZM22.7875 19.2437L27.5125 22L22.7875 24.7562V19.2437ZM21.2125 24.7562L16.4875 22L21.2125 19.2437V24.7562ZM27.5125 13.8625L22 17.0125L16.4875 13.8625L22 10.5813L27.5125 13.8625ZM14.125 13.3375V30.5312L22 34.9937L29.875 30.5312V13.3375L22 8.875L14.125 13.3375Z" fill="white"/>
</svg>
