<svg id="Layer_1" data-name="Layer 1" xmlns="http://www.w3.org/2000/svg" viewBox="0 0 360 360"><defs><style>.cls-1{fill:#121122;}.cls-2{fill:#f2f4f8;}.cls-3{fill:#6665dd;}.cls-4{fill:#ff99a5;}.cls-5{fill:#ffe600;}</style></defs><path class="cls-1" d="M0,180A180,180,0,1,0,180,0,180,180,0,0,0,0,180Z"/><g id="face"><path class="cls-2" d="M54.6,221c0-58.65,56.72-106.19,126.68-106.19S308,162.3,308,221,251.24,327.13,181.28,327.13,54.6,279.59,54.6,221Zm73.47-2.84c-14.85-6.55-40.23-4.89-40.23-4.89s1.19,23.89,15.76,32c17.28,9.61,49.41,4.85,49.41,4.85S150.28,227.9,128.07,218.11Zm82.51,32s32.13,4.76,49.41-4.85c14.57-8.11,15.76-32,15.76-32s-25.38-1.66-40.23,4.89C213.31,227.9,210.58,250.07,210.58,250.07ZM174.94,267c0,1.76,3.27,3.19,7.3,3.19s7.3-1.43,7.3-3.19-3.27-3.18-7.3-3.18S174.94,265.19,174.94,267Z"/><path class="cls-2" d="M304.05,177.12c2.69-14,5.27-28.57,3.07-42.73-2.06-19-8.58-24.8-28.16-19.93-12.92,3-31.17,12-41.22,21.48-11,10.22-.55,22.25,9.17,30.63,8.68,8.59,21.4,13.68,33.91,16.13,6.44,1.26,20.17,1,23.23-5.58Z"/><path class="cls-2" d="M57.39,177.12c-2.69-14-5.28-28.57-3.08-42.73,2.07-19,8.58-24.8,28.17-19.93,12.91,3,31.17,12,41.21,21.48,11,10.22.56,22.25-9.16,30.63-8.69,8.58-21.41,13.68-33.92,16.13-6.43,1.26-20.17,1-23.22-5.58Z"/></g><path class="cls-2" d="M74.89,240.4a108.33,108.33,0,0,0-38.5,7.21,2.56,2.56,0,0,0-1.74,3.07,2.52,2.52,0,0,0,3.07,1.75,104.14,104.14,0,0,1,37.17-7c3.21,0,3.22-5,0-5Z"/><path class="cls-2" d="M80.88,258.75a68.14,68.14,0,0,0-19,3.19C56,263.71,49.63,266.07,45,270.35c-2.37,2.19,1.17,5.72,3.53,3.53,3.81-3.53,9.78-5.69,15-7.22a62.86,62.86,0,0,1,17.33-2.91c3.22,0,3.22-5,0-5Z"/><path class="cls-2" d="M86.58,271.24a95.26,95.26,0,0,0-14.41,7.69,44.9,44.9,0,0,0-12,10.81,2.51,2.51,0,0,0,.89,3.42,2.57,2.57,0,0,0,3.43-.89c2.81-3.88,6.84-6.89,10.83-9.46a97.36,97.36,0,0,1,13.74-7.25,2.52,2.52,0,0,0,.9-3.42,2.57,2.57,0,0,0-3.42-.9Z"/><path class="cls-2" d="M288.49,245.29a104.3,104.3,0,0,1,37.16,7,2.52,2.52,0,0,0,3.08-1.75A2.55,2.55,0,0,0,327,247.5a108.23,108.23,0,0,0-38.49-7.21c-3.22,0-3.22,5,0,5Z"/><path class="cls-2" d="M282.5,263.65a62.54,62.54,0,0,1,17.33,2.9,58.57,58.57,0,0,1,8.47,3.13,25.77,25.77,0,0,1,6.51,4.1c2.36,2.18,5.9-1.34,3.54-3.54-4.6-4.27-10.93-6.64-16.85-8.41a67.89,67.89,0,0,0-19-3.18c-3.22,0-3.23,5,0,5Z"/><path class="cls-2" d="M274.49,275.66a99.84,99.84,0,0,1,13.53,7c4.1,2.61,8.17,5.69,11.05,9.66a2.56,2.56,0,0,0,3.42.9,2.52,2.52,0,0,0,.89-3.42c-6.37-8.79-16.62-14.25-26.36-18.5a2.59,2.59,0,0,0-3.43.89,2.53,2.53,0,0,0,.9,3.42Z"/><path id="hat" class="cls-3" d="M17.39,189.86C19.7,186.26,40,175.43,65.12,169a295.21,295.21,0,0,1,20-44.61c-.1,0,20.09-36.24,20-36.26a114.14,114.14,0,0,1-16.62-9.31,14.41,14.41,0,0,1-2.41-2.35,5.53,5.53,0,0,1-.8-2.93c0-.84,1.19-2.34,1.72-3a34.83,34.83,0,0,1,4.46-4.38,118.17,118.17,0,0,1,12.11-8.7c2-1.32,4.08-2.61,6.13-3.91C124.11,44.38,132,37.48,145.19,29.9c12.6-7.22,18.72-11.67,33.33-10.92,18.36,0,64,58.14,84.58,88.1,12.34,18,28.9,50.41,35,62.6,1.46.37,2.78.72,4,1.08,18.72,5.62,37.08,13.86,41.57,19.1,4,4.66-13.48,6.74-30.71,9.74s-75.68,4.49-131.85,4.87-121.73-1.5-136-3.75S14.52,194.35,17.39,189.86Z"/><path id="hat_band" data-name="hat band" class="cls-4" d="M282.44,139.64s-37-9.27-102.19-9.27c-70,0-103.71,10.8-103.71,10.8s-4,7.6-5.74,12S65.12,169,65.12,169s50.93-9.12,116.11-9.12a733.89,733.89,0,0,1,117.14,9.9s-5.91-13.83-9.45-19.73S282.44,139.64,282.44,139.64Z"/><path id="star" class="cls-5" d="M62.23,61.43c4.24-.62,10,12.36,10,12.36s13.34-3.59,15.42,0S78.27,86,78.27,86,85.19,98.17,83,100.7s-14.53-5.15-14.53-5.15-9.41,10.6-12.48,9,.41-15.41.41-15.41S43.09,83.48,44,80.12s14.78-4.38,14.78-4.38S58,62.05,62.23,61.43Z"/></svg>