<?xml version="1.0" standalone="no"?>
<!DOCTYPE svg PUBLIC "-//W3C//DTD SVG 20010904//EN"
 "http://www.w3.org/TR/2001/REC-SVG-20010904/DTD/svg10.dtd">
<svg version="1.0" xmlns="http://www.w3.org/2000/svg"
 width="244.000000pt" height="250.000000pt" viewBox="0 0 244.000000 250.000000"
 preserveAspectRatio="xMidYMid meet">

<g transform="translate(0.000000,250.000000) scale(0.100000,-0.100000)"
fill="#ffffff" stroke="none">
<path d="M1160 2141 c-70 -37 -330 -131 -431 -156 -57 -14 -160 -33 -229 -42
-69 -9 -131 -20 -138 -26 -9 -7 -12 -46 -10 -151 l3 -141 308 -3 308 -2 11
-25 c8 -19 8 -31 0 -50 l-12 -25 -298 0 c-164 0 -301 -2 -303 -5 -3 -2 2 -58
10 -125 l14 -120 407 0 c381 0 408 -1 423 -18 21 -23 22 -56 1 -76 -13 -14
-65 -16 -410 -16 l-394 0 6 -25 c3 -14 18 -64 33 -112 l27 -88 242 -3 243 -2
11 -25 c8 -19 8 -31 0 -50 l-12 -25 -216 0 c-251 0 -235 11 -163 -116 71 -124
46 -114 302 -114 238 0 247 -2 247 -50 0 -47 -11 -50 -203 -50 -108 0 -177 -4
-175 -9 5 -17 130 -121 200 -167 82 -55 227 -124 260 -124 35 0 209 88 293
147 274 195 453 512 526 937 25 145 41 373 37 521 l-3 120 -130 17 c-203 25
-417 85 -610 170 -111 50 -131 53 -175 29z"/>
</g>
</svg>
