<svg width="187" height="208" viewBox="0 0 187 208" fill="none" xmlns="http://www.w3.org/2000/svg">
<g opacity="0.9">
<path d="M186.948 124.43C186.369 114.641 183.933 120.453 176.785 119.386C152.81 109.428 157.158 74.1883 157.158 74.1883C157.158 33.8326 124.275 0 81.9275 0H75.152C34.4988 0 0 34.4508 0 74.8065V115.61C0 137.469 3.84191 150.9 17.393 169.397C32.6379 187.893 59.9775 215.962 100.631 205.873C100.631 205.873 106.679 203.879 107.464 200.927C108.248 197.975 113.054 186.089 131.69 186.089C148.628 182.726 147.219 165.687 147.219 165.687C147.219 165.687 147.84 148.372 166.475 146.522C183.414 144.84 187.528 134.219 186.948 124.43Z" fill="#BFD2D3"/>
<path fill-rule="evenodd" clip-rule="evenodd" d="M78.2683 6.80059C60.2541 9.27354 26.0894 32.7665 26.0894 89.6442C25.8823 103.658 26.2136 133.415 29.1953 140.34C29.4566 140.946 29.7485 141.681 30.0848 142.527C34.5452 153.753 46.8248 184.656 99.3883 198.454C102.506 199.272 105.203 200.025 107.522 200.717C107.501 200.791 107.481 200.861 107.464 200.927C106.679 203.879 100.631 205.873 100.631 205.873C59.9775 215.962 32.6379 187.893 17.393 169.397C3.84191 150.9 0 137.469 0 115.61V74.8065C0 34.4508 34.4988 0 75.1519 0H77.4644L78.2683 6.80059Z" fill="#A6B6B7"/>
<path fill-rule="evenodd" clip-rule="evenodd" d="M119.503 9.83478L91.934 2.47314L77.647 6.8008C84.4799 7.62511 100.496 13.1428 108.706 22.2567C124.856 40.1855 131.689 60.5873 131.689 84.6985C131.689 113.164 134.795 126.12 149.082 133.539C163.369 140.958 176.414 143.431 178.899 137.249C180.887 132.303 181.384 127.357 181.384 125.502L179.273 119.506C178.515 119.546 177.687 119.521 176.785 119.386C152.809 109.428 157.158 74.1885 157.158 74.1885C157.158 46.9845 142.215 22.7447 119.503 9.83478Z" fill="#768182"/>
<path fill-rule="evenodd" clip-rule="evenodd" d="M174.766 126.586L173.914 126.232C158.495 119.828 152.75 105.455 150.656 94.4309C149.585 88.7928 149.363 83.5672 149.399 79.7796C149.417 77.8735 149.501 76.3002 149.583 75.1821C149.624 74.6222 149.665 74.1743 149.697 73.8534C149.699 73.8352 149.701 73.8174 149.703 73.8C149.492 37.6854 119.994 7.41883 81.9275 7.41883H75.152C38.6237 7.41883 7.45413 38.54 7.45413 74.8065V115.61C7.45413 126.112 8.37997 134.114 10.7258 141.539C13.0516 148.902 16.9065 156.116 23.2915 164.856C38.491 183.265 62.9027 207.392 98.4783 198.76C98.5641 198.728 98.6712 198.686 98.7946 198.637C99.2019 198.473 99.7142 198.246 100.205 197.982C100.384 197.886 100.535 197.798 100.659 197.721C101.592 195.016 103.657 190.787 107.821 186.954C112.79 182.381 120.236 178.852 130.861 178.677C135.884 177.491 137.835 174.652 138.828 172.02C139.401 170.498 139.65 168.98 139.744 167.811C139.79 167.24 139.796 166.789 139.793 166.511C139.791 166.373 139.787 166.282 139.785 166.243C139.785 166.242 139.785 166.241 139.785 166.24L139.754 165.86L139.77 165.423L147.219 165.687C147.219 165.687 148.628 182.726 131.69 186.089C113.054 186.089 108.248 197.975 107.464 200.927C106.679 203.879 100.631 205.873 100.631 205.873C59.9775 215.962 32.6379 187.893 17.393 169.397C3.84191 150.9 0 137.469 0 115.61V74.8065C0 34.4508 34.4988 0 75.152 0H81.9275C124.275 0 157.158 33.8326 157.158 74.1883C157.158 74.1883 152.81 109.428 176.785 119.386C179.253 119.754 181.159 119.303 182.621 118.956C185.394 118.3 186.569 118.021 186.948 124.43C187.528 134.219 183.414 144.84 166.475 146.522C147.84 148.372 147.219 165.687 147.219 165.687C139.77 165.423 139.77 165.419 139.77 165.415L139.77 165.406L139.771 165.388L139.773 165.347C139.774 165.318 139.776 165.284 139.778 165.246C139.782 165.169 139.787 165.076 139.795 164.966C139.811 164.746 139.835 164.461 139.874 164.118C139.95 163.436 140.083 162.514 140.313 161.425C140.769 159.27 141.635 156.329 143.306 153.262C146.812 146.827 153.651 140.339 165.736 139.14C172.657 138.453 175.779 136.113 177.312 134.073C178.673 132.261 179.424 129.83 179.533 126.921C178.375 126.974 177.085 126.932 175.679 126.723L174.766 126.586ZM179.242 122.466C179.243 122.466 179.244 122.471 179.246 122.48C179.243 122.471 179.242 122.466 179.242 122.466ZM98.2586 198.839L98.2611 198.839C98.2554 198.841 98.2544 198.841 98.2586 198.839ZM101.1 197.411C101.097 197.414 101.093 197.417 101.089 197.421C101.131 197.378 101.141 197.375 101.1 197.411Z" fill="#2A3040"/>
<ellipse cx="45.3461" cy="64.2963" rx="24.8471" ry="24.7294" fill="#1F2B46"/>
<path d="M45.3459 51.9317C42.051 51.9317 38.891 53.2344 36.5611 55.5532C34.2313 57.8721 32.9224 61.0171 32.9224 64.2964C32.9224 67.5757 34.2313 70.7208 36.5611 73.0396C38.891 75.3584 42.051 76.6611 45.3459 76.6611L45.3459 64.2964L45.3459 51.9317Z" fill="#52D784"/>
<ellipse cx="108.706" cy="64.2963" rx="24.8471" ry="24.7294" fill="#1F2B46"/>
<path d="M108.706 51.9317C105.411 51.9317 102.251 53.2344 99.921 55.5532C97.5911 57.8721 96.2822 61.0171 96.2822 64.2964C96.2822 67.5757 97.5911 70.7208 99.921 73.0396C102.251 75.3584 105.411 76.6611 108.706 76.6611L108.706 64.2964L108.706 51.9317Z" fill="#60D5DC"/>
</g>
</svg>
