<svg width="46" height="47" viewBox="0 0 46 47" fill="none" xmlns="http://www.w3.org/2000/svg">
<path d="M23.393 22.3436L21.7374 22.3603L21.6937 18.0373L20.0017 18.0544L19.9583 13.7652L17.6332 13.7887L17.589 9.40916L16.2377 9.42282L16.2027 5.9576L14.0481 5.97938L14.0564 6.80335L11.2444 6.83177L11.2707 9.43915L8.45872 9.46757L8.48507 12.075L5.68523 12.1033L5.71158 14.7106L2.89957 14.739L2.92581 17.3351L0.113793 17.3636L0.271675 32.9853L3.08369 32.9568L3.11004 35.5642L5.92205 35.5358L5.94841 38.1432L8.74825 38.1149L8.77448 40.711L11.5865 40.6826L11.6128 43.2899L14.4249 43.2615L14.4512 45.8689L31.2989 45.6986L31.2726 43.0912L34.0724 43.0629L34.0461 40.4556L36.8581 40.4271L36.8319 37.831L39.6439 37.8026L39.6175 35.1952L42.4174 35.167L42.391 32.5596L45.203 32.5312L45.0451 16.9095L42.2331 16.9379L42.2069 14.3418L39.4071 14.3701L39.3807 11.7627L36.5687 11.7911L36.5423 9.18374L33.7303 9.21216L33.704 6.60478L30.9041 6.63308L30.9308 9.27432L29.9691 9.28404L30.0302 15.3228L28.1798 15.3415L28.224 19.7097L26.325 19.7289L26.3673 23.9165L25.4543 23.9257L25.4643 24.919L25.4907 27.5264L23.4456 27.547L23.393 22.3436Z" fill="#E9E122"/>
<path d="M13.7687 26.4483L13.8213 31.6517L19.4331 31.595L19.3806 26.3915L13.7687 26.4483Z" fill="#6B223C"/>
<path d="M13.8034 29.8796L13.8213 31.6517L15.7325 31.6324L15.7146 29.8603L13.8034 29.8796Z" fill="white"/>
<path d="M20.5215 6.84037L20.5215 6.08033L19.7615 6.08033L19.0015 6.08033L19.0015 3.80021L19.0015 1.52008L19.7615 1.52008L20.5215 1.52008L20.5215 0.760041L20.5215 4.15694e-10L23.5617 1.24708e-09L26.6019 2.07847e-09L26.6019 0.760041L26.6019 1.52008L27.3619 1.52008L28.122 1.52008L28.122 3.80021L28.122 6.08033L27.3619 6.08033L26.6019 6.08033L26.6019 6.84037L26.6019 7.60041L23.5617 7.60041L20.5215 7.60041L20.5215 6.84037Z" fill="#E9E122"/>
<rect x="14.6802" y="34.1356" width="7.61988" height="2.32744" transform="rotate(-90.0872 14.6802 34.1356)" fill="white"/>
<rect x="14.4795" y="18.7501" width="7.61988" height="2.32744" transform="rotate(-90.0872 14.4795 18.7501)" fill="white"/>
<rect x="16.2603" y="32.6738" width="7.61988" height="2.32744" transform="rotate(-90.0872 16.2603 32.6738)" fill="white"/>
<rect x="15.8213" y="17.0968" width="7.61988" height="2.32744" transform="rotate(-90.0872 15.8213 17.0968)" fill="white"/>
<rect x="17.0044" y="32.0658" width="7.61988" height="2.32744" transform="rotate(-90.0872 17.0044 32.0658)" fill="white"/>
<path d="M19.6168 32.3042L18.9587 32.3206L18.9443 32.9736L18.9298 33.6265L18.2769 33.6429L17.624 33.6593L17.6095 34.3122L17.5951 34.9652L16.9422 34.9816L16.2892 34.998L16.2798 35.5378C16.2751 35.836 16.2704 36.1188 16.2653 36.1651C16.2654 36.2422 16.1883 36.2577 15.6382 36.2688L15.0059 36.2852L14.9965 40.2541L14.9922 44.2281L14.3753 44.229L13.7583 44.23L13.7291 25.054L13.7 5.8781L14.9596 5.87618L16.2192 5.87427L16.2202 6.48091C16.2208 6.8819 16.2417 7.10808 16.2829 7.14914C16.3241 7.19021 16.5452 7.21043 16.9513 7.20982L17.5529 7.2089L17.5693 7.86179L17.5857 8.51981L18.2438 8.53423L18.8968 8.54866L18.9038 13.119L18.9107 17.6894L18.2578 17.7058L17.5997 17.7222L17.5853 18.3751L17.5709 19.0281L16.9179 19.0445L16.265 19.0609L16.2516 20.3924C16.2429 21.4258 16.2588 21.7342 16.3051 21.7702C16.3411 21.7907 16.6445 21.8108 16.9787 21.8103L17.5802 21.8093L17.5812 22.416C17.5818 22.817 17.6027 23.0432 17.6439 23.0842C17.6851 23.1253 17.9113 23.1455 18.3123 23.1449L18.919 23.144L18.9199 23.7557C18.9205 24.1465 18.9415 24.3829 18.9775 24.4086C19.0084 24.4239 19.3066 24.4389 19.6459 24.4333L20.2577 24.422L20.2637 28.3549L20.2697 32.2878L19.6168 32.3042ZM18.3788 29.6328L17.7463 29.6183L17.7455 29.0322L17.7446 28.4461L18.3769 28.4298L19.0042 28.4134L19.0185 27.7039L19.0328 26.9944L18.3234 27.0109L17.6139 27.0274L17.5995 27.6855L17.585 28.3436L16.9732 28.3342C16.3305 28.3301 16.2431 28.3456 16.2588 28.4844C16.264 28.5358 16.2644 28.8083 16.2597 29.0962L16.2554 29.6206L15.6281 29.6369L14.9958 29.6533L14.9969 30.3731L14.998 31.0928L15.6252 31.1073L16.2525 31.1217L16.2686 31.5947C16.2955 32.3607 16.3571 32.2937 15.6271 32.3103L14.9998 32.3266L15.0009 33.0207L15.0019 33.7147L15.696 33.7137L16.3901 33.7126L16.4045 33.0597L16.419 32.4067L17.0719 32.3903L17.7248 32.3739L17.7393 31.7415L17.7538 31.1143L18.3604 31.1134C18.6946 31.1129 18.9825 31.097 19.0031 31.0764C19.0185 31.0558 19.0282 30.7268 19.0225 30.3464L19.006 29.6472L18.3788 29.6328ZM17.6625 15.0848C17.6214 15.0437 17.3951 15.0235 16.9941 15.0241L16.3874 15.025L16.3865 14.4338L16.3856 13.8477L17.0437 13.8313L17.6966 13.8149L17.6955 13.1209L17.6945 12.4268L17.0775 12.4123C16.1623 12.3932 16.2291 12.3365 16.2302 13.0974L16.2312 13.74L15.5885 13.741L14.9407 13.742L14.9572 14.4463L14.9737 15.1557L15.6061 15.1702L16.2334 15.1846L16.2343 15.7707L16.2352 16.3568L15.608 16.3731L14.9756 16.3895L14.9612 17.099L14.9469 17.8085L15.6564 17.792L16.3659 17.7755L16.3803 17.1431L16.3948 16.5159L16.9963 16.515C17.4025 16.5144 17.6236 16.4935 17.6646 16.4523C17.7519 16.3647 17.7501 15.172 17.6625 15.0848Z" fill="black"/>
<path d="M15.6904 46.9006L15.0991 46.9015L15.0972 45.6419L15.0953 44.3824L15.6865 44.3815L16.2778 44.3806L16.2797 45.6401L16.2816 46.8997L15.6904 46.9006Z" fill="black"/>
</svg>
